<?xml version="1.0" encoding="UTF-8"?>
<svg id="Layer_2" data-name="Layer 2" xmlns="http://www.w3.org/2000/svg" viewBox="0 0 90.31 105.18">
  <defs>
    <style>
      .cls-1 {
        fill: #ed1c24;
        stroke: #f7941d;
        stroke-width: .75px;
      }

      .cls-2 {
        fill: #fff200;
      }

      .cls-2, .cls-3, .cls-4, .cls-5, .cls-6, .cls-7 {
        stroke: #231f20;
        stroke-width: .99px;
      }

      .cls-2, .cls-3, .cls-4, .cls-7 {
        stroke-linecap: round;
        stroke-linejoin: round;
      }

      .cls-8, .cls-9, .cls-10 {
        stroke-width: 0px;
      }

      .cls-8, .cls-5 {
        fill: #231f20;
      }

      .cls-9 {
        fill: #414042;
      }

      .cls-3, .cls-10, .cls-6 {
        fill: #fff;
      }

      .cls-4 {
        fill: #cbdb2a;
      }

      .cls-7 {
        fill: none;
      }
    </style>
  </defs>
  <g id="Layer_1-2" data-name="Layer 1">
    <g>
      <g>
        <path class="cls-3" d="M71.72,36.71s-5.06,12.3-14.25,13.08c-11.32.96-21.58-8.55-21.58-8.55,0,0,6.85,19.87,21.58,18.11,14.72-1.76,14.25-22.64,14.25-22.64"/>
        <path class="cls-4" d="M48.52,73.47c2.42-.95,8.58-.89,11.37.12,2.79,1.02,8.13,10.17,7.94,14.25-.04.77-.77,1.73-1.18,1.8-1.29.23-3.53-3.77-5.78-5.95-.12.47-.03,1,.03,1.46.1.75.38,3.8.36,4.57-.01.38.7,14.36-1.17,14.72-.94.18-2.86.16-3.82.09-.89-.06-1.23.08-1.59-.87-.3-.79.03-7.7.03-8.3-.48-.15-3.48.03-3.49.12-.03.54.11,4.18.06,4.97-.1,1.66.24,3.72-.58,4.07-.43.19-4.15.27-5.08-.04-.63-.22-.32-11.3,0-13.64.24-1.73.35-9.07.45-10.81"/>
        <path class="cls-4" d="M71.53,9.4c-2.34-2.59-7.27-2.43-10.31-1.06-2.78,1.24-4.76,2.94-4.73,5.75.01,1.66.14,3.41-.03,5.05-1.36-.08-12.04,3.38-13.25,3.04-.93-.26-3.27-5.93-4.81-7.59-2.32-2.49-5.04-3.35-8.46-3.76-15.6-1.88-9.9,14.82-9.36,16.12,2.07,5.04-1.87,10.59-4.15,14.94-3.63,6.92-4.59,15.41.18,21.8,6.57,8.8,23.3,12.93,36.09,12.18,4.17-.24,11.43-1.18,15.37-2.32,5.01-1.46,10.54-3.97,14.1-7.5,9.25-9.17,10.56-23.27,1.54-31.73-2.66-2.5-9.53-22.02-12.17-24.93"/>
        <path class="cls-8" d="M23.62,14.45c2.12-3.25,6.32-5.22,9.93-3.15,4.18,2.4,7.95-4.06,3.77-6.45-7.26-4.17-15.81-.83-20.15,5.83-2.63,4.04,3.83,7.79,6.45,3.77h0Z"/>
        <path class="cls-6" d="M23.5,17.21c0,4.3,3.87,7.78,8.65,7.78s8.65-3.48,8.65-7.78-3.87-7.78-8.65-7.78-8.65,3.48-8.65,7.78"/>
        <path class="cls-5" d="M38.95,17.2c0-2.83-2.3-5.13-5.13-5.13s-5.13,2.3-5.13,5.13,2.29,5.13,5.13,5.13,5.13-2.3,5.13-5.13Z"/>
        <path class="cls-10" d="M37.23,16.71c0-.54-.44-.97-.98-.97s-.98.44-.98.97.44.98.98.98.98-.44.98-.98"/>
        <path class="cls-8" d="M76.26,2.43c-6.36-3.91-14.92-3.07-20.25,2.22-3.22,3.2,1.76,8.18,4.98,4.98s8.02-3.39,11.71-1.12c3.87,2.38,7.41-3.71,3.55-6.08h0Z"/>
        <path class="cls-6" d="M59.54,13.15c0,4.29,3.87,7.78,8.65,7.78s8.65-3.49,8.65-7.78-3.87-7.78-8.65-7.78-8.65,3.49-8.65,7.78"/>
        <path class="cls-5" d="M75.07,13.14c0-2.83-2.3-5.13-5.13-5.13s-5.13,2.3-5.13,5.13,2.3,5.13,5.13,5.13,5.13-2.3,5.13-5.13"/>
        <path class="cls-10" d="M74,12.68c0-.54-.44-.97-.98-.97s-.97.43-.97.97.44.98.97.98.98-.44.98-.98"/>
        <g>
          <path class="cls-1" d="M49.5,82.31c0-2.53,2.05-4.57,4.57-4.57s4.57,2.05,4.57,4.57-2.05,4.57-4.57,4.57-4.57-2.05-4.57-4.57Z"/>
          <path class="cls-10" d="M56.35,80c0,.29-.06.51-.18.66-.12.15-.28.22-.48.22h-1.96c-.09,0-.14.03-.14.1v.76h1.83c.18,0,.33.08.45.25.12.16.17.37.17.63,0,.28-.06.5-.17.65-.12.15-.27.22-.46.22h-1.81v1.08c0,.31-.06.56-.18.74-.13.2-.3.3-.52.3s-.4-.1-.51-.29c-.11-.19-.17-.44-.17-.76v-4.31c0-.75.28-1.12.85-1.12h2.64c.19,0,.34.08.46.23.12.15.17.36.17.63Z"/>
        </g>
        <g>
          <path class="cls-4" d="M39.07,72.76c.04-2.07,1.03-8.87-3.73-12.64-5.74-4.55-10.73.41-4.94,5.21,2.25,1.87,4.15,7.07,3.85,8.68"/>
          <path class="cls-4" d="M46.3,74.66c1.76.4,3.44,3.05,2.71,5.09-.43,1.2-1.65,1.93-2.78,1.66,1.02.91.74,2.86-.22,3.77-1.64,1.56-5.84,1.7-7.84,1.08-6.56-2.06-8.25-15.14-2.92-19.31,3.12-2.44,10.78-1.5,11.9,3.6.32,1.44-.02,3.03-.86,4.11Z"/>
        </g>
      </g>
      <g>
        <path class="cls-9" d="M80.95,13.98c-.75-6.14-7.28-7.77-14.97-6.82-4.54.56-8.46,1.89-10.76,4.15l-12.91,1.59c-2.78-1.64-6.9-1.99-11.44-1.43-7.69.94-13.62,4.1-12.87,10.24.75,6.14,5.45,14.71,15.78,13.44s12.81-10.72,12.06-16.86c-.04-.33-.11-.64-.18-.94l7.4-.91c0,.31.01.63.06.96.75,6.14,5.45,14.71,15.78,13.44,10.33-1.27,12.81-10.72,12.06-16.86Z"/>
        <path class="cls-7" d="M80.95,13.98c-.75-6.14-7.28-7.77-14.97-6.82-4.54.56-8.46,1.89-10.76,4.15l-12.91,1.59c-2.78-1.64-6.9-1.99-11.44-1.43-7.69.94-13.62,4.1-12.87,10.24.75,6.14,5.45,14.71,15.78,13.44s12.81-10.72,12.06-16.86c-.04-.33-.11-.64-.18-.94l7.4-.91c0,.31.01.63.06.96.75,6.14,5.45,14.71,15.78,13.44,10.33-1.27,12.81-10.72,12.06-16.86Z"/>
      </g>
      <path class="cls-2" d="M7.06,42.19c0-5.85,2.94-10.59,6.56-10.59-3.62,0-6.56-4.74-6.56-10.59,0,5.85-2.94,10.59-6.56,10.59,3.62,0,6.56,4.74,6.56,10.59Z"/>
      <path class="cls-4" d="M37.75,43s.74,4.4,5.25,7.81c6.41,4.85,17.62,4.34,21.97-2.43"/>
      <path class="cls-10" d="M23.47,16.54c1.95-1.21,5.42-2.35,7.44-2.08,1.41.19.68,1.08-1.02,1.68-3.02,1.06-4.71,2.39-5.52,3.28-2.16,2.4-.22,5.95-1.07,6.25-.98.36-1.99-2.13-2.31-4.05-.38-2.26.47-3.85,2.47-5.09Z"/>
      <path class="cls-10" d="M58.58,12.23c1.95-1.21,5.42-2.35,7.44-2.08,1.41.19.68,1.08-1.02,1.68-3.02,1.06-4.71,2.39-5.52,3.28-2.16,2.4-.22,5.95-1.07,6.25-.98.36-1.99-2.13-2.31-4.05-.38-2.26.47-3.85,2.47-5.09Z"/>
    </g>
  </g>
</svg>