<?xml version="1.0" encoding="UTF-8"?>
<svg id="Layer_2" data-name="Layer 2" xmlns="http://www.w3.org/2000/svg" viewBox="0 0 174.71 114.89">
  <defs>
    <style>
      .cls-1, .cls-2 {
        fill: #231f20;
      }

      .cls-1, .cls-3 {
        stroke-width: 0px;
      }

      .cls-4 {
        fill: #fff200;
        stroke-width: .81px;
      }

      .cls-4, .cls-5, .cls-2, .cls-6, .cls-7 {
        stroke-linecap: round;
        stroke-linejoin: round;
      }

      .cls-4, .cls-2, .cls-6, .cls-7 {
        stroke: #231f20;
      }

      .cls-5 {
        fill: none;
        stroke: #fff;
        stroke-width: 2.13px;
      }

      .cls-5, .cls-8, .cls-9 {
        font-family: CloudyWithaChanceofLove, 'Cloudy With a Chance of Love';
        font-size: 21px;
      }

      .cls-10 {
        fill: #ed1c24;
        stroke: #f7941d;
        stroke-width: .75px;
      }

      .cls-11 {
        letter-spacing: 0em;
      }

      .cls-2, .cls-6, .cls-7 {
        stroke-width: .99px;
      }

      .cls-6, .cls-3 {
        fill: #fff;
      }

      .cls-7 {
        fill: #cbdb2a;
      }

      .cls-8 {
        fill: #8a73b4;
      }

      .cls-12 {
        letter-spacing: -.04em;
      }

      .cls-9 {
        fill: #f7941d;
      }
    </style>
  </defs>
  <g id="Layer_1-2" data-name="Layer 1">
    <g>
      <path class="cls-7" d="M46.77,73.15c-2.36-1.09-9.56-.9-12.41-.05-2.85.85-8.71,9.68-8.75,13.77,0,.77.67,1.77,1.07,1.87,1.28.31,3.74-3.56,6.11-5.61.09.47-.03,1-.11,1.46-.14.75-.6,3.77-.62,4.54,0,.38-1.52,14.3.32,14.76.93.23,2.84.32,3.8.31.9-.01,1.22.15,1.64-.77.35-.77.41-7.69.45-8.29.49-.12,3.48.24,3.48.32,0,.54-.35,4.17-.35,4.96,0,1.67-.46,3.7.35,4.1.42.21,4.12.51,5.08.25.64-.18.97-11.26.78-13.62-.14-1.74-.27-6.2-.27-7.95"/>
      <path class="cls-7" d="M47.34,83.19c3.42-.05,7.51-.65,9.6-2.59,2.41-2.25,5.53-11.63,2.42-14.58-1.99-1.9-4.74-2.42-6.68-.76-1.43,1.22-1.99,3.56-.4,5.51,1.1,1.35,3.06.95,3.06.95-1.02,3.7-3.45,4.3-10.06,3.59"/>
      <path class="cls-7" d="M58.71,9.41c-2.35-2.59-7.27-2.43-10.32-1.06-2.78,1.23-4.76,2.94-4.73,5.75.01,1.66.14,3.4-.03,5.05-1.36-.08-12.04,3.37-13.25,3.04-.93-.26-3.27-5.94-4.81-7.59-2.32-2.49-5.05-3.35-8.47-3.77C1.47,8.95,7.18,25.67,7.72,26.97c2.07,5.04-1.86,10.59-4.15,14.95-3.64,6.92-4.6,15.42.17,21.81,6.57,8.8,23.31,12.94,36.11,12.18,4.17-.24,11.43-1.18,15.38-2.32,5.01-1.46,10.54-3.97,14.11-7.5,9.25-9.17,10.57-23.28,1.54-31.75-2.66-2.5-9.53-22.03-12.17-24.94"/>
      <path class="cls-6" d="M58.91,36.73s-5.06,12.3-14.26,13.08c-11.32.96-21.59-8.55-21.59-8.55,0,0,6.85,19.88,21.59,18.12,14.73-1.77,14.26-22.65,14.26-22.65"/>
      <path class="cls-10" d="M35.23,82.64c-.05-2.52,1.96-4.61,4.49-4.66s4.61,1.96,4.66,4.48c.05,2.53-1.96,4.61-4.48,4.66-2.53.05-4.62-1.95-4.67-4.48Z"/>
      <path class="cls-1" d="M10.78,14.45c2.12-3.25,6.32-5.22,9.93-3.15,4.18,2.4,7.95-4.06,3.77-6.46-7.27-4.16-15.81-.83-20.16,5.83-2.64,4.04,3.83,7.79,6.46,3.77h0Z"/>
      <path class="cls-6" d="M10.66,17.21c0,4.3,3.88,7.79,8.66,7.79s8.65-3.48,8.65-7.79-3.87-7.78-8.65-7.78-8.66,3.48-8.66,7.78"/>
      <path class="cls-2" d="M26.11,17.2c0-2.83-2.3-5.13-5.14-5.13s-5.13,2.29-5.13,5.13,2.29,5.13,5.13,5.13,5.14-2.3,5.14-5.13Z"/>
      <path class="cls-3" d="M24.4,16.71c0-.54-.43-.97-.98-.97s-.98.43-.98.97.44.97.98.97.98-.43.98-.97"/>
      <path class="cls-1" d="M63.45,2.44c-6.36-3.91-14.93-3.08-20.26,2.22-3.22,3.2,1.76,8.18,4.98,4.98s8.03-3.39,11.72-1.12,7.42-3.71,3.56-6.08h0Z"/>
      <path class="cls-6" d="M46.72,13.15c0,4.3,3.88,7.79,8.66,7.79s8.65-3.49,8.65-7.79-3.88-7.78-8.65-7.78-8.66,3.49-8.66,7.78"/>
      <path class="cls-2" d="M62.26,13.14c0-2.83-2.3-5.13-5.13-5.13s-5.13,2.3-5.13,5.13,2.3,5.13,5.13,5.13,5.13-2.3,5.13-5.13"/>
      <path class="cls-3" d="M61.18,12.69c0-.54-.43-.98-.98-.98s-.97.44-.97.98.44.98.97.98.98-.44.98-.98"/>
      <path class="cls-3" d="M42.04,80.2c0,.29-.05.5-.16.66-.12.15-.28.23-.47.23l-1.96.04c-.09,0-.14.03-.14.1l.02.76,1.83-.04c.19,0,.33.07.46.24.12.15.18.36.18.62,0,.28-.05.5-.16.65-.12.15-.27.23-.46.23l-1.81.04.02,1.08c0,.31-.05.56-.17.75-.12.2-.29.31-.51.32-.22,0-.4-.09-.52-.29-.12-.19-.18-.44-.19-.75l-.09-4.3c-.01-.75.26-1.13.83-1.14l2.64-.05c.19,0,.34.07.47.22.12.15.18.35.18.63Z"/>
      <g>
        <polygon class="cls-4" points="93.64 37.92 91.23 33.7 104.91 20.8 111.54 30.59 93.64 37.92"/>
        <polygon class="cls-4" points="96.99 48.44 96.82 42.83 115.55 38.92 114.19 49.91 96.99 48.44"/>
        <polygon class="cls-4" points="86.84 29.67 82.03 27.25 89.53 8.16 98.95 12.77 86.84 29.67"/>
      </g>
      <path class="cls-7" d="M47.34,83.19c3.42-.05,7.51-.65,9.6-2.59,2.41-2.25,5.53-11.63,2.42-14.58-1.99-1.9-4.74-2.42-6.68-.76-1.43,1.22-1.99,3.56-.4,5.51,1.1,1.35,3.06.95,3.06.95-.69,2.72-4.11,2.76-9.93,3.68"/>
    </g>
    <g>
      <text class="cls-8" transform="translate(75.34 86.09)"><tspan x="0" y="0">I’ll do </tspan><tspan class="cls-12" x="0" y="21">m</tspan><tspan x="20.98" y="21">y b</tspan><tspan class="cls-11" x="57.14" y="21">e</tspan><tspan x="70.6" y="21">st!</tspan></text>
      <text class="cls-5" transform="translate(75.34 86.09)"><tspan x="0" y="0">I’ll do </tspan><tspan class="cls-12" x="0" y="21">m</tspan><tspan x="20.98" y="21">y b</tspan><tspan class="cls-11" x="57.14" y="21">e</tspan><tspan x="70.6" y="21">st!</tspan></text>
      <text class="cls-9" transform="translate(75.34 86.09)"><tspan x="0" y="0">I’ll do </tspan><tspan class="cls-12" x="0" y="21">m</tspan><tspan x="20.98" y="21">y b</tspan><tspan class="cls-11" x="57.14" y="21">e</tspan><tspan x="70.6" y="21">st!</tspan></text>
    </g>
  </g>
</svg>