<?xml version="1.0" encoding="UTF-8"?>
<svg id="Layer_2" data-name="Layer 2" xmlns="http://www.w3.org/2000/svg" viewBox="0 0 140.69 136.64">
  <defs>
    <style>
      .cls-1 {
        fill: #ed1c24;
        stroke: #f7941d;
        stroke-width: .75px;
      }

      .cls-2 {
        fill: #231f20;
      }

      .cls-2, .cls-3, .cls-4, .cls-5 {
        stroke-width: 0px;
      }

      .cls-3 {
        fill: #f173ac;
      }

      .cls-6 {
        fill: #009444;
      }

      .cls-6, .cls-7, .cls-8, .cls-9 {
        stroke-linecap: round;
        stroke-linejoin: round;
      }

      .cls-6, .cls-7, .cls-10, .cls-9 {
        stroke: #231f20;
        stroke-width: .99px;
      }

      .cls-7 {
        fill: #cbdb2a;
      }

      .cls-4 {
        fill: #8a73b4;
      }

      .cls-8 {
        stroke: #fff;
        stroke-width: 2.13px;
      }

      .cls-8, .cls-9 {
        fill: none;
      }

      .cls-5, .cls-10 {
        fill: #fff;
      }
    </style>
  </defs>
  <g id="Layer_1-2" data-name="Layer 1">
    <g>
      <g>
        <path class="cls-4" d="M10.7,14.33c-.22-.2-.49-.36-.8-.5-.31-.14-.65-.22-1.01-.24-.37-.02-.77.06-1.2.25-.86.4-1.4,1.05-1.6,1.94-.2.9-.08,1.99.37,3.3.21.65.48,1.19.81,1.6.33.41.68.73,1.06.95.38.22.78.35,1.2.39.42.04.85,0,1.28-.13.58-.15,1.03-.37,1.34-.66.31-.29.54-.58.69-.85.17-.33.26-.68.27-1.04-.78.18-1.56.36-2.34.55-.27-.9-.54-1.79-.81-2.69,2.67-.7,5.35-1.35,8.03-1.96.17.62.29,1.25.38,1.91.07.56.09,1.19.07,1.87-.02.69-.14,1.35-.36,1.98-.18.57-.41,1.14-.69,1.71-.27.56-.65,1.09-1.12,1.59-.47.49-1.06.94-1.77,1.35-.7.41-1.58.76-2.63,1.06-.98.28-1.93.39-2.86.32-.93-.06-1.82-.29-2.66-.68-.84-.39-1.61-.95-2.31-1.69-.7-.73-1.3-1.63-1.79-2.7-.97-2.17-1.36-4.17-1.12-5.98.24-1.82,1.02-3.34,2.35-4.57.65-.6,1.37-1.08,2.16-1.46.79-.37,1.57-.63,2.36-.79.78-.15,1.54-.22,2.26-.2.72.02,1.35.11,1.88.27.55.17,1.05.38,1.5.63.44.25.82.49,1.13.73.37.27.7.55.99.84-1.53,1.12-3.04,2.26-4.53,3.41-.13-.15-.31-.32-.53-.51Z"/>
        <path class="cls-4" d="M34.84,14.21c.29,1.44.3,2.65.04,3.62-.26.97-.68,1.76-1.26,2.37-.58.61-1.28,1.09-2.09,1.44-.81.35-1.63.62-2.46.81-.84.2-1.68.29-2.51.28-.84-.01-1.62-.17-2.35-.49-.73-.31-1.39-.79-1.97-1.44-.58-.65-1.03-1.52-1.33-2.61-.3-1.08-.32-2.07-.05-2.97.27-.9.7-1.69,1.29-2.38.59-.69,1.25-1.26,1.99-1.72.74-.46,1.42-.8,2.05-1.02.31-.11.72-.22,1.21-.33.5-.11,1.04-.16,1.61-.17.58,0,1.17.05,1.79.17.62.13,1.19.36,1.73.71.54.35,1.01.82,1.42,1.43.41.6.71,1.37.89,2.3ZM28.27,18.3c.85-.15,1.49-.51,1.92-1.09.43-.58.56-1.24.37-1.99-.11-.42-.28-.74-.5-.98-.22-.24-.48-.4-.78-.5-.29-.1-.61-.14-.94-.13-.33.02-.66.06-.97.14-.91.23-1.52.61-1.86,1.14-.33.53-.43,1.07-.29,1.63.06.27.15.52.28.78.13.25.31.46.56.64.24.18.54.31.91.39.36.08.8.07,1.3-.03Z"/>
        <path class="cls-4" d="M51.23,12.14c.18,1.46.1,2.66-.23,3.61-.33.95-.8,1.7-1.43,2.27-.62.57-1.35.99-2.19,1.28-.84.28-1.67.49-2.5.63-.85.13-1.69.17-2.52.09-.83-.07-1.6-.29-2.3-.66-.7-.37-1.32-.89-1.85-1.58-.53-.69-.91-1.59-1.13-2.7-.22-1.1-.17-2.09.17-2.96.34-.88.82-1.64,1.45-2.28.63-.64,1.33-1.16,2.1-1.56.77-.4,1.47-.69,2.11-.86.32-.09.73-.17,1.23-.23.5-.07,1.04-.09,1.62-.05.58.03,1.16.14,1.77.31.6.17,1.16.45,1.67.83.51.39.94.9,1.31,1.53.36.63.6,1.42.72,2.36ZM44.4,15.73c.86-.09,1.52-.4,1.99-.95.47-.54.65-1.19.51-1.95-.08-.43-.22-.76-.43-1.02-.21-.25-.45-.43-.74-.56-.29-.12-.59-.19-.93-.2-.33,0-.66.01-.98.07-.92.16-1.56.49-1.93.99-.37.5-.5,1.03-.41,1.6.04.27.11.53.22.79.11.26.28.49.51.68.23.2.52.35.88.45.36.11.79.13,1.3.07Z"/>
        <path class="cls-4" d="M63.24,18.29c0-.22-.02-.43-.02-.65-.46.22-.97.4-1.52.54-.47.11-1.02.2-1.66.26-.64.06-1.33.02-2.09-.11-1.41-.24-2.48-.82-3.19-1.78-.71-.96-1.06-2.41-1.03-4.37.03-.93.19-1.74.47-2.41.29-.67.67-1.22,1.14-1.66.47-.43,1.01-.76,1.62-.98.6-.22,1.23-.36,1.88-.41.65-.03,1.23-.01,1.74.06.51.07.94.17,1.28.28.4.13.74.28,1.01.44,0-1.65,0-3.3,0-4.95,1.7-.07,3.39-.13,5.09-.17.11,5.27.22,10.54.32,15.81-1.69.01-3.37.04-5.06.1ZM60.39,14.21c.78-.05,1.35-.28,1.74-.68.38-.4.54-.86.47-1.39-.03-.26-.11-.47-.25-.64-.14-.17-.31-.3-.52-.4-.21-.1-.44-.16-.69-.19-.25-.03-.5-.03-.76,0-.43.05-.78.14-1.05.26-.26.12-.47.26-.61.42-.14.16-.24.33-.3.52-.06.19-.08.38-.07.57,0,.18.05.36.13.56.08.2.2.37.38.52.18.15.38.27.63.35.25.08.54.12.89.1Z"/>
        <path class="cls-4" d="M83.36,1.06c1.81.19,3.61.41,5.41.64-.39,5.71-.78,11.41-1.17,17.12-2.01-.16-4.03-.3-6.05-.41.58-5.79,1.18-11.57,1.81-17.35Z"/>
        <path class="cls-4" d="M105.61,20.97c-1.88-.36-3.76-.69-5.65-.99.01-.29.03-.58.04-.87-.28.22-.61.39-.98.52-.34.12-.76.21-1.25.27-.49.07-1.07.04-1.75-.07-.69-.1-1.3-.21-1.81-.33-.52-.12-.97-.3-1.35-.53-.39-.23-.71-.55-.97-.95-.26-.4-.5-.94-.7-1.62-.1-.33-.17-.71-.19-1.15-.03-.44-.03-.9-.01-1.38.02-.48.06-.97.11-1.48.05-.51.12-1,.2-1.48.17-1.11.39-2.27.68-3.48,1.94.24,3.87.51,5.8.81-.08.51-.15.99-.22,1.45-.06.4-.12.8-.18,1.2-.06.4-.1.72-.12.94-.04.24-.08.5-.12.8-.03.29-.07.58-.1.87-.03.29-.06.55-.08.79-.02.24-.02.42,0,.55.03.57.19.96.47,1.18.28.22.6.35.96.4.31.04.61,0,.89-.1.28-.11.52-.41.72-.9.12-.29.22-.68.3-1.18.07-.5.16-1.07.24-1.7.03-.22.08-.57.14-1.06.06-.48.14-.96.22-1.44.07-.55.16-1.16.27-1.8,1.82.27,3.63.56,5.44.87-.31,3.95-.63,7.9-.97,11.85Z"/>
        <path class="cls-4" d="M120.98,15.92c-.19-.24-.47-.51-.83-.82-.37-.3-.85-.59-1.46-.85-.62-.27-1.18-.4-1.66-.39-.49,0-.92.1-1.28.27-.37.18-.65.42-.87.73-.22.31-.37.63-.45.97-.18.73-.1,1.37.24,1.91.34.54,1.02.97,2.04,1.28.51.16,1.01.24,1.49.25.48,0,.92,0,1.3-.05.44-.06.86-.16,1.24-.28.38,1.34.76,2.68,1.12,4.01-.38.19-.89.31-1.51.38-.53.06-1.23.06-2.08.03-.85-.04-1.9-.21-3.13-.5-1.23-.27-2.24-.63-3.05-1.08-.81-.45-1.44-.98-1.9-1.6-.45-.62-.74-1.33-.87-2.15-.12-.81-.11-1.7.04-2.68.14-.98.46-1.85.96-2.61.5-.75,1.14-1.37,1.91-1.85.77-.48,1.65-.8,2.64-.96.99-.16,2.04-.14,3.14.08,1.12.22,2.06.52,2.82.88.76.37,1.37.73,1.84,1.09.54.42.98.85,1.31,1.3-.85,1.16-1.7,2.33-2.53,3.49-.09-.27-.25-.55-.48-.85Z"/>
        <path class="cls-4" d="M132.3,27.08c-.72-1.65-1.45-3.29-2.22-4.94-.35,1.35-.7,2.69-1.05,4.04-1.7-.48-3.41-.93-5.12-1.37,1.47-5.31,2.94-10.63,4.43-15.94,1.64.46,3.27.94,4.89,1.43-.63,2.36-1.27,4.73-1.9,7.09,1.4-.87,2.81-1.73,4.23-2.58,1.36.48,2.71.98,4.06,1.49-1.95,1.4-3.88,2.83-5.77,4.29,1.28,2.69,2.49,5.38,3.64,8.09-1.73-.56-3.46-1.1-5.19-1.62Z"/>
      </g>
      <g>
        <path class="cls-8" d="M10.7,14.33c-.22-.2-.49-.36-.8-.5-.31-.14-.65-.22-1.01-.24-.37-.02-.77.06-1.2.25-.86.4-1.4,1.05-1.6,1.94-.2.9-.08,1.99.37,3.3.21.65.48,1.19.81,1.6.33.41.68.73,1.06.95.38.22.78.35,1.2.39.42.04.85,0,1.28-.13.58-.15,1.03-.37,1.34-.66.31-.29.54-.58.69-.85.17-.33.26-.68.27-1.04-.78.18-1.56.36-2.34.55-.27-.9-.54-1.79-.81-2.69,2.67-.7,5.35-1.35,8.03-1.96.17.62.29,1.25.38,1.91.07.56.09,1.19.07,1.87-.02.69-.14,1.35-.36,1.98-.18.57-.41,1.14-.69,1.71-.27.56-.65,1.09-1.12,1.59-.47.49-1.06.94-1.77,1.35-.7.41-1.58.76-2.63,1.06-.98.28-1.93.39-2.86.32-.93-.06-1.82-.29-2.66-.68-.84-.39-1.61-.95-2.31-1.69-.7-.73-1.3-1.63-1.79-2.7-.97-2.17-1.36-4.17-1.12-5.98.24-1.82,1.02-3.34,2.35-4.57.65-.6,1.37-1.08,2.16-1.46.79-.37,1.57-.63,2.36-.79.78-.15,1.54-.22,2.26-.2.72.02,1.35.11,1.88.27.55.17,1.05.38,1.5.63.44.25.82.49,1.13.73.37.27.7.55.99.84-1.53,1.12-3.04,2.26-4.53,3.41-.13-.15-.31-.32-.53-.51Z"/>
        <path class="cls-8" d="M34.84,14.21c.29,1.44.3,2.65.04,3.62-.26.97-.68,1.76-1.26,2.37-.58.61-1.28,1.09-2.09,1.44-.81.35-1.63.62-2.46.81-.84.2-1.68.29-2.51.28-.84-.01-1.62-.17-2.35-.49-.73-.31-1.39-.79-1.97-1.44-.58-.65-1.03-1.52-1.33-2.61-.3-1.08-.32-2.07-.05-2.97.27-.9.7-1.69,1.29-2.38.59-.69,1.25-1.26,1.99-1.72.74-.46,1.42-.8,2.05-1.02.31-.11.72-.22,1.21-.33.5-.11,1.04-.16,1.61-.17.58,0,1.17.05,1.79.17.62.13,1.19.36,1.73.71.54.35,1.01.82,1.42,1.43.41.6.71,1.37.89,2.3ZM28.27,18.3c.85-.15,1.49-.51,1.92-1.09.43-.58.56-1.24.37-1.99-.11-.42-.28-.74-.5-.98-.22-.24-.48-.4-.78-.5-.29-.1-.61-.14-.94-.13-.33.02-.66.06-.97.14-.91.23-1.52.61-1.86,1.14-.33.53-.43,1.07-.29,1.63.06.27.15.52.28.78.13.25.31.46.56.64.24.18.54.31.91.39.36.08.8.07,1.3-.03Z"/>
        <path class="cls-8" d="M51.23,12.14c.18,1.46.1,2.66-.23,3.61-.33.95-.8,1.7-1.43,2.27-.62.57-1.35.99-2.19,1.28-.84.28-1.67.49-2.5.63-.85.13-1.69.17-2.52.09-.83-.07-1.6-.29-2.3-.66-.7-.37-1.32-.89-1.85-1.58-.53-.69-.91-1.59-1.13-2.7-.22-1.1-.17-2.09.17-2.96.34-.88.82-1.64,1.45-2.28.63-.64,1.33-1.16,2.1-1.56.77-.4,1.47-.69,2.11-.86.32-.09.73-.17,1.23-.23.5-.07,1.04-.09,1.62-.05.58.03,1.16.14,1.77.31.6.17,1.16.45,1.67.83.51.39.94.9,1.31,1.53.36.63.6,1.42.72,2.36ZM44.4,15.73c.86-.09,1.52-.4,1.99-.95.47-.54.65-1.19.51-1.95-.08-.43-.22-.76-.43-1.02-.21-.25-.45-.43-.74-.56-.29-.12-.59-.19-.93-.2-.33,0-.66.01-.98.07-.92.16-1.56.49-1.93.99-.37.5-.5,1.03-.41,1.6.04.27.11.53.22.79.11.26.28.49.51.68.23.2.52.35.88.45.36.11.79.13,1.3.07Z"/>
        <path class="cls-8" d="M63.24,18.29c0-.22-.02-.43-.02-.65-.46.22-.97.4-1.52.54-.47.11-1.02.2-1.66.26-.64.06-1.33.02-2.09-.11-1.41-.24-2.48-.82-3.19-1.78-.71-.96-1.06-2.41-1.03-4.37.03-.93.19-1.74.47-2.41.29-.67.67-1.22,1.14-1.66.47-.43,1.01-.76,1.62-.98.6-.22,1.23-.36,1.88-.41.65-.03,1.23-.01,1.74.06.51.07.94.17,1.28.28.4.13.74.28,1.01.44,0-1.65,0-3.3,0-4.95,1.7-.07,3.39-.13,5.09-.17.11,5.27.22,10.54.32,15.81-1.69.01-3.37.04-5.06.1ZM60.39,14.21c.78-.05,1.35-.28,1.74-.68.38-.4.54-.86.47-1.39-.03-.26-.11-.47-.25-.64-.14-.17-.31-.3-.52-.4-.21-.1-.44-.16-.69-.19-.25-.03-.5-.03-.76,0-.43.05-.78.14-1.05.26-.26.12-.47.26-.61.42-.14.16-.24.33-.3.52-.06.19-.08.38-.07.57,0,.18.05.36.13.56.08.2.2.37.38.52.18.15.38.27.63.35.25.08.54.12.89.1Z"/>
        <path class="cls-8" d="M83.36,1.06c1.81.19,3.61.41,5.41.64-.39,5.71-.78,11.41-1.17,17.12-2.01-.16-4.03-.3-6.05-.41.58-5.79,1.18-11.57,1.81-17.35Z"/>
        <path class="cls-8" d="M105.61,20.97c-1.88-.36-3.76-.69-5.65-.99.01-.29.03-.58.04-.87-.28.22-.61.39-.98.52-.34.12-.76.21-1.25.27-.49.07-1.07.04-1.75-.07-.69-.1-1.3-.21-1.81-.33-.52-.12-.97-.3-1.35-.53-.39-.23-.71-.55-.97-.95-.26-.4-.5-.94-.7-1.62-.1-.33-.17-.71-.19-1.15-.03-.44-.03-.9-.01-1.38.02-.48.06-.97.11-1.48.05-.51.12-1,.2-1.48.17-1.11.39-2.27.68-3.48,1.94.24,3.87.51,5.8.81-.08.51-.15.99-.22,1.45-.06.4-.12.8-.18,1.2-.06.4-.1.72-.12.94-.04.24-.08.5-.12.8-.03.29-.07.58-.1.87-.03.29-.06.55-.08.79-.02.24-.02.42,0,.55.03.57.19.96.47,1.18.28.22.6.35.96.4.31.04.61,0,.89-.1.28-.11.52-.41.72-.9.12-.29.22-.68.3-1.18.07-.5.16-1.07.24-1.7.03-.22.08-.57.14-1.06.06-.48.14-.96.22-1.44.07-.55.16-1.16.27-1.8,1.82.27,3.63.56,5.44.87-.31,3.95-.63,7.9-.97,11.85Z"/>
        <path class="cls-8" d="M120.98,15.92c-.19-.24-.47-.51-.83-.82-.37-.3-.85-.59-1.46-.85-.62-.27-1.18-.4-1.66-.39-.49,0-.92.1-1.28.27-.37.18-.65.42-.87.73-.22.31-.37.63-.45.97-.18.73-.1,1.37.24,1.91.34.54,1.02.97,2.04,1.28.51.16,1.01.24,1.49.25.48,0,.92,0,1.3-.05.44-.06.86-.16,1.24-.28.38,1.34.76,2.68,1.12,4.01-.38.19-.89.31-1.51.38-.53.06-1.23.06-2.08.03-.85-.04-1.9-.21-3.13-.5-1.23-.27-2.24-.63-3.05-1.08-.81-.45-1.44-.98-1.9-1.6-.45-.62-.74-1.33-.87-2.15-.12-.81-.11-1.7.04-2.68.14-.98.46-1.85.96-2.61.5-.75,1.14-1.37,1.91-1.85.77-.48,1.65-.8,2.64-.96.99-.16,2.04-.14,3.14.08,1.12.22,2.06.52,2.82.88.76.37,1.37.73,1.84,1.09.54.42.98.85,1.31,1.3-.85,1.16-1.7,2.33-2.53,3.49-.09-.27-.25-.55-.48-.85Z"/>
        <path class="cls-8" d="M132.3,27.08c-.72-1.65-1.45-3.29-2.22-4.94-.35,1.35-.7,2.69-1.05,4.04-1.7-.48-3.41-.93-5.12-1.37,1.47-5.31,2.94-10.63,4.43-15.94,1.64.46,3.27.94,4.89,1.43-.63,2.36-1.27,4.73-1.9,7.09,1.4-.87,2.81-1.73,4.23-2.58,1.36.48,2.71.98,4.06,1.49-1.95,1.4-3.88,2.83-5.77,4.29,1.28,2.69,2.49,5.38,3.64,8.09-1.73-.56-3.46-1.1-5.19-1.62Z"/>
      </g>
      <g>
        <path class="cls-3" d="M10.7,14.33c-.22-.2-.49-.36-.8-.5-.31-.14-.65-.22-1.01-.24-.37-.02-.77.06-1.2.25-.86.4-1.4,1.05-1.6,1.94-.2.9-.08,1.99.37,3.3.21.65.48,1.19.81,1.6.33.41.68.73,1.06.95.38.22.78.35,1.2.39.42.04.85,0,1.28-.13.58-.15,1.03-.37,1.34-.66.31-.29.54-.58.69-.85.17-.33.26-.68.27-1.04-.78.18-1.56.36-2.34.55-.27-.9-.54-1.79-.81-2.69,2.67-.7,5.35-1.35,8.03-1.96.17.62.29,1.25.38,1.91.07.56.09,1.19.07,1.87-.02.69-.14,1.35-.36,1.98-.18.57-.41,1.14-.69,1.71-.27.56-.65,1.09-1.12,1.59-.47.49-1.06.94-1.77,1.35-.7.41-1.58.76-2.63,1.06-.98.28-1.93.39-2.86.32-.93-.06-1.82-.29-2.66-.68-.84-.39-1.61-.95-2.31-1.69-.7-.73-1.3-1.63-1.79-2.7-.97-2.17-1.36-4.17-1.12-5.98.24-1.82,1.02-3.34,2.35-4.57.65-.6,1.37-1.08,2.16-1.46.79-.37,1.57-.63,2.36-.79.78-.15,1.54-.22,2.26-.2.72.02,1.35.11,1.88.27.55.17,1.05.38,1.5.63.44.25.82.49,1.13.73.37.27.7.55.99.84-1.53,1.12-3.04,2.26-4.53,3.41-.13-.15-.31-.32-.53-.51Z"/>
        <path class="cls-3" d="M34.84,14.21c.29,1.44.3,2.65.04,3.62-.26.97-.68,1.76-1.26,2.37-.58.61-1.28,1.09-2.09,1.44-.81.35-1.63.62-2.46.81-.84.2-1.68.29-2.51.28-.84-.01-1.62-.17-2.35-.49-.73-.31-1.39-.79-1.97-1.44-.58-.65-1.03-1.52-1.33-2.61-.3-1.08-.32-2.07-.05-2.97.27-.9.7-1.69,1.29-2.38.59-.69,1.25-1.26,1.99-1.72.74-.46,1.42-.8,2.05-1.02.31-.11.72-.22,1.21-.33.5-.11,1.04-.16,1.61-.17.58,0,1.17.05,1.79.17.62.13,1.19.36,1.73.71.54.35,1.01.82,1.42,1.43.41.6.71,1.37.89,2.3ZM28.27,18.3c.85-.15,1.49-.51,1.92-1.09.43-.58.56-1.24.37-1.99-.11-.42-.28-.74-.5-.98-.22-.24-.48-.4-.78-.5-.29-.1-.61-.14-.94-.13-.33.02-.66.06-.97.14-.91.23-1.52.61-1.86,1.14-.33.53-.43,1.07-.29,1.63.06.27.15.52.28.78.13.25.31.46.56.64.24.18.54.31.91.39.36.08.8.07,1.3-.03Z"/>
        <path class="cls-3" d="M51.23,12.14c.18,1.46.1,2.66-.23,3.61-.33.95-.8,1.7-1.43,2.27-.62.57-1.35.99-2.19,1.28-.84.28-1.67.49-2.5.63-.85.13-1.69.17-2.52.09-.83-.07-1.6-.29-2.3-.66-.7-.37-1.32-.89-1.85-1.58-.53-.69-.91-1.59-1.13-2.7-.22-1.1-.17-2.09.17-2.96.34-.88.82-1.64,1.45-2.28.63-.64,1.33-1.16,2.1-1.56.77-.4,1.47-.69,2.11-.86.32-.09.73-.17,1.23-.23.5-.07,1.04-.09,1.62-.05.58.03,1.16.14,1.77.31.6.17,1.16.45,1.67.83.51.39.94.9,1.31,1.53.36.63.6,1.42.72,2.36ZM44.4,15.73c.86-.09,1.52-.4,1.99-.95.47-.54.65-1.19.51-1.95-.08-.43-.22-.76-.43-1.02-.21-.25-.45-.43-.74-.56-.29-.12-.59-.19-.93-.2-.33,0-.66.01-.98.07-.92.16-1.56.49-1.93.99-.37.5-.5,1.03-.41,1.6.04.27.11.53.22.79.11.26.28.49.51.68.23.2.52.35.88.45.36.11.79.13,1.3.07Z"/>
        <path class="cls-3" d="M63.24,18.29c0-.22-.02-.43-.02-.65-.46.22-.97.4-1.52.54-.47.11-1.02.2-1.66.26-.64.06-1.33.02-2.09-.11-1.41-.24-2.48-.82-3.19-1.78-.71-.96-1.06-2.41-1.03-4.37.03-.93.19-1.74.47-2.41.29-.67.67-1.22,1.14-1.66.47-.43,1.01-.76,1.62-.98.6-.22,1.23-.36,1.88-.41.65-.03,1.23-.01,1.74.06.51.07.94.17,1.28.28.4.13.74.28,1.01.44,0-1.65,0-3.3,0-4.95,1.7-.07,3.39-.13,5.09-.17.11,5.27.22,10.54.32,15.81-1.69.01-3.37.04-5.06.1ZM60.39,14.21c.78-.05,1.35-.28,1.74-.68.38-.4.54-.86.47-1.39-.03-.26-.11-.47-.25-.64-.14-.17-.31-.3-.52-.4-.21-.1-.44-.16-.69-.19-.25-.03-.5-.03-.76,0-.43.05-.78.14-1.05.26-.26.12-.47.26-.61.42-.14.16-.24.33-.3.52-.06.19-.08.38-.07.57,0,.18.05.36.13.56.08.2.2.37.38.52.18.15.38.27.63.35.25.08.54.12.89.1Z"/>
        <path class="cls-3" d="M83.36,1.06c1.81.19,3.61.41,5.41.64-.39,5.71-.78,11.41-1.17,17.12-2.01-.16-4.03-.3-6.05-.41.58-5.79,1.18-11.57,1.81-17.35Z"/>
        <path class="cls-3" d="M105.61,20.97c-1.88-.36-3.76-.69-5.65-.99.01-.29.03-.58.04-.87-.28.22-.61.39-.98.52-.34.12-.76.21-1.25.27-.49.07-1.07.04-1.75-.07-.69-.1-1.3-.21-1.81-.33-.52-.12-.97-.3-1.35-.53-.39-.23-.71-.55-.97-.95-.26-.4-.5-.94-.7-1.62-.1-.33-.17-.71-.19-1.15-.03-.44-.03-.9-.01-1.38.02-.48.06-.97.11-1.48.05-.51.12-1,.2-1.48.17-1.11.39-2.27.68-3.48,1.94.24,3.87.51,5.8.81-.08.51-.15.99-.22,1.45-.06.4-.12.8-.18,1.2-.06.4-.1.72-.12.94-.04.24-.08.5-.12.8-.03.29-.07.58-.1.87-.03.29-.06.55-.08.79-.02.24-.02.42,0,.55.03.57.19.96.47,1.18.28.22.6.35.96.4.31.04.61,0,.89-.1.28-.11.52-.41.72-.9.12-.29.22-.68.3-1.18.07-.5.16-1.07.24-1.7.03-.22.08-.57.14-1.06.06-.48.14-.96.22-1.44.07-.55.16-1.16.27-1.8,1.82.27,3.63.56,5.44.87-.31,3.95-.63,7.9-.97,11.85Z"/>
        <path class="cls-3" d="M120.98,15.92c-.19-.24-.47-.51-.83-.82-.37-.3-.85-.59-1.46-.85-.62-.27-1.18-.4-1.66-.39-.49,0-.92.1-1.28.27-.37.18-.65.42-.87.73-.22.31-.37.63-.45.97-.18.73-.1,1.37.24,1.91.34.54,1.02.97,2.04,1.28.51.16,1.01.24,1.49.25.48,0,.92,0,1.3-.05.44-.06.86-.16,1.24-.28.38,1.34.76,2.68,1.12,4.01-.38.19-.89.31-1.51.38-.53.06-1.23.06-2.08.03-.85-.04-1.9-.21-3.13-.5-1.23-.27-2.24-.63-3.05-1.08-.81-.45-1.44-.98-1.9-1.6-.45-.62-.74-1.33-.87-2.15-.12-.81-.11-1.7.04-2.68.14-.98.46-1.85.96-2.61.5-.75,1.14-1.37,1.91-1.85.77-.48,1.65-.8,2.64-.96.99-.16,2.04-.14,3.14.08,1.12.22,2.06.52,2.82.88.76.37,1.37.73,1.84,1.09.54.42.98.85,1.31,1.3-.85,1.16-1.7,2.33-2.53,3.49-.09-.27-.25-.55-.48-.85Z"/>
        <path class="cls-3" d="M132.3,27.08c-.72-1.65-1.45-3.29-2.22-4.94-.35,1.35-.7,2.69-1.05,4.04-1.7-.48-3.41-.93-5.12-1.37,1.47-5.31,2.94-10.63,4.43-15.94,1.64.46,3.27.94,4.89,1.43-.63,2.36-1.27,4.73-1.9,7.09,1.4-.87,2.81-1.73,4.23-2.58,1.36.48,2.71.98,4.06,1.49-1.95,1.4-3.88,2.83-5.77,4.29,1.28,2.69,2.49,5.38,3.64,8.09-1.73-.56-3.46-1.1-5.19-1.62Z"/>
      </g>
    </g>
    <g>
      <g>
        <path class="cls-7" d="M65.47,106.4s-5.19-.27-7.51-1.52c-2.33-1.25-9.09,1.79-3.22,5.55,4.47,2.86,10.91,2.68,10.91,2.68.09.47-.03,2.07-.11,2.53-.14.75-.6,3.77-.62,4.54,0,.38-3.85,14.3-2.01,14.76.93.23,2.84.32,3.8.31.9-.01,1.22.15,1.64-.77.35-.77,2.73-7.69,2.77-8.29.49-.12,3.48.24,3.48.32,0,.54,2.54,8.66,3.34,9.06.42.21,4.44,1,5.08.25.89-1.05-2.37-11.26-2.56-13.62-.14-1.74-.17-7.28-.17-9.03,0,0,4.06-.67,7.51-1.97,2.86-1.07,5.99-3.26,4.65-5.19-1.77-2.54-3.22-1.25-10.38-.36"/>
        <path class="cls-7" d="M91.46,40.68c-2.34-2.59-7.27-2.43-10.31-1.06-2.78,1.24-4.76,2.94-4.73,5.75.01,1.66.14,3.41-.03,5.05-1.36-.08-12.04,3.38-13.25,3.04-.93-.26-3.27-5.93-4.81-7.59-2.32-2.49-5.04-3.35-8.46-3.76-15.6-1.88-9.9,14.82-9.36,16.12,2.07,5.04-1.87,10.59-4.15,14.94-3.63,6.92-4.59,15.41.18,21.8,6.57,8.8,23.3,12.93,36.09,12.18,4.17-.24,11.43-1.18,15.37-2.32,5.01-1.46,10.54-3.97,14.1-7.5,9.25-9.17,10.56-23.27,1.54-31.73-2.66-2.5-9.53-22.02-12.17-24.93"/>
        <path class="cls-9" d="M90.6,68.35s.47,20.88-14.25,22.64c-14.73,1.76-21.58-18.11-21.58-18.11"/>
        <path class="cls-2" d="M43.55,45.73c2.12-3.25,6.32-5.22,9.93-3.15,4.18,2.4,7.95-4.06,3.77-6.45-7.26-4.17-15.81-.83-20.15,5.83-2.63,4.04,3.83,7.79,6.45,3.77h0Z"/>
        <path class="cls-10" d="M43.43,48.49c0,4.3,3.87,7.78,8.65,7.78s8.65-3.48,8.65-7.78-3.87-7.78-8.65-7.78-8.65,3.48-8.65,7.78"/>
        <path class="cls-2" d="M96.19,33.71c-6.36-3.91-14.92-3.07-20.25,2.22-3.22,3.2,1.76,8.18,4.98,4.98s8.02-3.39,11.71-1.12c3.87,2.38,7.41-3.71,3.55-6.08h0Z"/>
        <path class="cls-10" d="M79.47,44.43c0,4.29,3.87,7.78,8.65,7.78s8.65-3.49,8.65-7.78-3.87-7.78-8.65-7.78-8.65,3.49-8.65,7.78"/>
        <g>
          <path class="cls-1" d="M69.43,113.58c0-2.53,2.05-4.57,4.57-4.57s4.57,2.05,4.57,4.57-2.05,4.57-4.57,4.57-4.57-2.05-4.57-4.57Z"/>
          <path class="cls-5" d="M76.28,111.28c0,.29-.06.51-.18.66-.12.15-.28.22-.48.22h-1.96c-.09,0-.14.03-.14.1v.76h1.83c.18,0,.33.08.45.25.12.16.17.37.17.63,0,.28-.06.5-.17.65-.12.15-.27.22-.46.22h-1.81v1.08c0,.31-.06.56-.18.74-.13.2-.3.3-.52.3s-.4-.1-.51-.29c-.11-.19-.17-.44-.17-.76v-4.31c0-.75.28-1.12.85-1.12h2.64c.19,0,.34.08.46.23.12.15.17.36.17.63Z"/>
        </g>
        <g>
          <path class="cls-7" d="M58.56,103.74c.04-2.07,1.03-8.87-3.73-12.64-5.74-4.55-10.73.41-4.94,5.21,2.25,1.87,4.15,7.07,3.85,8.68"/>
          <path class="cls-7" d="M65.78,105.64c1.76.4,3.44,3.05,2.71,5.09-.43,1.2-1.65,1.93-2.78,1.66,1.02.91.74,2.86-.22,3.77-1.64,1.56-5.84,1.7-7.84,1.08-6.56-2.06-8.25-15.14-2.92-19.31,3.12-2.44,10.78-1.5,11.9,3.6.32,1.44-.02,3.03-.86,4.11Z"/>
        </g>
        <path class="cls-9" d="M47.8,51.07s.32-5.35,3.73-5.99,5.51,3.56,5.51,3.56"/>
        <path class="cls-9" d="M93.4,45.91s-1.51-5.14-4.97-5.01c-3.46.13-4.57,4.71-4.57,4.71"/>
      </g>
      <g>
        <path class="cls-9" d="M100.16,92.96s-10.48,9.3-12.81,23.96"/>
        <path class="cls-6" d="M109.81,95.73c-4.36,1.17-9.65-2.77-9.65-2.77,0,0,2.61-6.06,6.97-7.22,3.11-.83,6.22.73,6.96,3.49.74,2.76-1.18,5.67-4.28,6.5Z"/>
        <path class="cls-6" d="M102.93,83.31c1.17,4.36-2.77,9.65-2.77,9.65,0,0-6.06-2.61-7.22-6.97-.83-3.11.73-6.22,3.49-6.96s5.67,1.18,6.5,4.28Z"/>
        <path class="cls-6" d="M90.51,90.19c4.36-1.17,9.65,2.77,9.65,2.77,0,0-2.61,6.06-6.97,7.22-3.11.83-6.22-.73-6.96-3.49-.74-2.76,1.18-5.67,4.28-6.5Z"/>
        <path class="cls-6" d="M97.39,102.61c-1.17-4.36,2.77-9.65,2.77-9.65,0,0,6.06,2.61,7.22,6.97.83,3.11-.73,6.22-3.49,6.96s-5.67-1.18-6.5-4.28Z"/>
      </g>
    </g>
  </g>
</svg>