<?xml version="1.0" encoding="UTF-8"?>
<svg id="Layer_2" data-name="Layer 2" xmlns="http://www.w3.org/2000/svg" viewBox="0 0 127.96 130.12">
  <defs>
    <style>
      .cls-1 {
        fill: #8a73b4;
      }

      .cls-1, .cls-2, .cls-3 {
        font-family: CloudyWithaChanceofLove, 'Cloudy With a Chance of Love';
        font-size: 24px;
      }

      .cls-4, .cls-5 {
        fill: #231f20;
      }

      .cls-4, .cls-6 {
        stroke-width: 0px;
      }

      .cls-7 {
        letter-spacing: -.09em;
      }

      .cls-5, .cls-8, .cls-9 {
        stroke: #231f20;
        stroke-width: .99px;
      }

      .cls-5, .cls-8, .cls-9, .cls-2 {
        stroke-linecap: round;
        stroke-linejoin: round;
      }

      .cls-8, .cls-6 {
        fill: #fff;
      }

      .cls-9 {
        fill: #cbdb2a;
      }

      .cls-2 {
        fill: none;
        stroke: #fff;
        stroke-width: 2.13px;
      }

      .cls-10 {
        fill: #ed1c24;
        stroke: #f7941d;
        stroke-width: .75px;
      }

      .cls-11 {
        letter-spacing: 0em;
      }

      .cls-3 {
        fill: #f7941d;
      }
    </style>
  </defs>
  <g id="Layer_1-2" data-name="Layer 1">
    <g>
      <text class="cls-1" transform="translate(5.06 31.49) rotate(-10)"><tspan x="0" y="0">Let</tspan><tspan class="cls-7" x="41.04" y="0">’</tspan><tspan x="46.44" y="0">s</tspan><tspan class="cls-11" x="0" y="24">g</tspan><tspan x="15.84" y="24">o!</tspan></text>
      <text class="cls-2" transform="translate(5.06 31.49) rotate(-10)"><tspan x="0" y="0">Let</tspan><tspan class="cls-7" x="41.04" y="0">’</tspan><tspan x="46.44" y="0">s</tspan><tspan class="cls-11" x="0" y="24">g</tspan><tspan x="15.84" y="24">o!</tspan></text>
      <text class="cls-3" transform="translate(5.06 31.49) rotate(-10)"><tspan x="0" y="0">Let</tspan><tspan class="cls-7" x="41.04" y="0">’</tspan><tspan x="46.44" y="0">s</tspan><tspan class="cls-11" x="0" y="24">g</tspan><tspan x="15.84" y="24">o!</tspan></text>
    </g>
    <g>
      <path class="cls-9" d="M70.11,101.35c.68-1.23,2.03-1.93,3.36-2.36,3.39-1.09,7.07-.87,10.52.11.36-4.55,1.9-5.15,7.38-5.73,11.39-1.19,14.74,9.48,14.96,11.34.35,2.92-5.57.76-6.02,4.37-.58,4.66,2.34,10.43.54,12.8s-5.84,1.46-6.97-1.55l-2.55-.18c.52,2.9,2.09,6.57,2.18,7.89.02.29.04.61-.11.86-.2.33-.63.43-1.02.5-.65.12-3.62.31-4.27.2-1.19-.19-1.73-2.31-2.84-5.52-1.29-3.72-1.6-7.81-1.67-11.74-.03-1.38.02-3.65.09-5.95-2.51-1.82-6.51-2.57-9.46-1.82.6.72-.02,1.92-.91,2.21-3.57,1.19-4.61-2.91-3.23-5.42Z"/>
      <path class="cls-9" d="M91.34,120.15c1.13.23,1.98.28,3.13.2s2.19-.45,3.13-.95"/>
      <g>
        <path class="cls-10" d="M88.84,108.05c0-2.53,2.05-4.57,4.57-4.57s4.57,2.05,4.57,4.57-2.05,4.57-4.57,4.57-4.57-2.05-4.57-4.57Z"/>
        <path class="cls-6" d="M95.69,105.75c0,.29-.06.51-.18.66-.12.15-.28.22-.48.22h-1.96c-.09,0-.14.03-.14.1v.76h1.83c.18,0,.33.08.45.25.12.16.17.37.17.63,0,.28-.06.5-.17.65-.12.15-.27.22-.46.22h-1.81v1.08c0,.31-.06.56-.18.74-.13.2-.3.3-.52.3s-.4-.1-.51-.29c-.11-.19-.17-.44-.17-.76v-4.31c0-.75.28-1.12.85-1.12h2.64c.19,0,.34.08.46.23.12.15.17.36.17.63Z"/>
      </g>
      <path class="cls-9" d="M103.66,105.09s-3.61-2.69-5.49-1.1c-1.76,1.48-1.49,4.09,1.08,6.02,2.3,1.72,6.5,2.82,8.96.97,2.26-1.7,1.63-5.3.32-7.21-2.03-2.96-6.91-5.65-9.35-5.32"/>
      <path class="cls-9" d="M109.18,35.17c-2.34-2.59-7.27-2.43-10.31-1.06-2.78,1.24-4.76,2.94-4.73,5.75.01,1.66.14,3.41-.03,5.05-1.36-.08-12.04,3.38-13.25,3.04-.93-.26-3.27-5.93-4.81-7.59-2.32-2.49-5.04-3.35-8.46-3.76-15.6-1.88-9.9,14.82-9.36,16.12,2.07,5.04-1.87,10.59-4.15,14.94-3.64,6.92-4.59,15.41.18,21.8,6.57,8.8,23.3,12.93,36.09,12.18,4.17-.24,11.43-1.18,15.37-2.32,5.01-1.46,10.54-3.97,14.1-7.5,9.25-9.17,10.56-23.27,1.54-31.73-2.66-2.5-9.53-22.02-12.17-24.93"/>
      <path class="cls-8" d="M109.37,62.48s-5.06,12.3-14.25,13.08c-11.32.96-21.58-8.55-21.58-8.55,0,0,6.85,19.87,21.58,18.11,14.72-1.76,14.25-22.64,14.25-22.64"/>
      <path class="cls-4" d="M61.27,40.21c.08-.12.86-1.25.37-.62.2-.26.42-.5.64-.74s.44-.45.68-.67c.15-.14.31-.28.47-.41-.35.26-.36.27-.02.03.51-.33,1.03-.62,1.55-.92.38-.18.35-.17-.09.02.18-.07.36-.14.55-.2.27-.09.55-.18.83-.25s.56-.12.83-.19c.74-.18-.73,0,.26-.03.6-.01,1.18,0,1.78.02-1.02-.04-.07,0,.2.06.3.07.6.15.89.25s.82.46.08,0c.29.18.62.32.91.5,1.67,1.02,4.18.42,5.11-1.34.96-1.82.44-4.03-1.34-5.11-7.05-4.29-16.03-.79-20.15,5.83-1.03,1.66-.41,4.19,1.34,5.11s4.01.43,5.11-1.34h0Z"/>
      <path class="cls-8" d="M61.15,42.97c0,4.3,3.87,7.78,8.65,7.78s8.65-3.48,8.65-7.78-3.87-7.78-8.65-7.78-8.65,3.48-8.65,7.78"/>
      <path class="cls-5" d="M76.59,42.96c0-2.83-2.3-5.13-5.13-5.13s-5.13,2.3-5.13,5.13,2.29,5.13,5.13,5.13,5.13-2.3,5.13-5.13Z"/>
      <path class="cls-6" d="M74.88,42.47c0-.54-.44-.97-.98-.97s-.98.44-.98.97.44.98.98.98.98-.44.98-.98"/>
      <path class="cls-4" d="M113.91,28.2c-6.11-3.98-15.17-3.1-20.25,2.22-1.31,1.38-1.37,3.61,0,4.98s3.66,1.38,4.98,0c.2-.21.4-.41.61-.61.2-.18.7-.52.21-.18.51-.34,1.02-.66,1.56-.93.19-.1.88-.35.3-.15.3-.11.6-.22.9-.31s.62-.17.93-.25c.12-.03,1.19-.21.81-.16-.4.05.56-.04.67-.04.33-.02.66-.02.99-.01s.66.03.99.06c.26.03.22.02-.11-.02.16.03.33.06.49.09.66.13,1.3.32,1.93.56.23.09.21.08-.06-.02.15.07.31.15.46.23.36.19.69.4,1.03.62,1.59,1.04,3.89.32,4.82-1.26,1-1.71.33-3.78-1.26-4.82h0Z"/>
      <path class="cls-8" d="M97.19,38.91c0,4.29,3.87,7.78,8.65,7.78s8.65-3.49,8.65-7.78-3.87-7.78-8.65-7.78-8.65,3.49-8.65,7.78"/>
      <path class="cls-5" d="M112.72,38.9c0-2.83-2.3-5.13-5.13-5.13s-5.13,2.3-5.13,5.13,2.3,5.13,5.13,5.13,5.13-2.3,5.13-5.13"/>
      <path class="cls-6" d="M111.65,38.44c0-.54-.44-.97-.98-.97s-.97.43-.97.97.44.98.97.98.98-.44.98-.98"/>
    </g>
  </g>
</svg>