<?xml version="1.0" encoding="UTF-8"?>
<svg id="Layer_2" data-name="Layer 2" xmlns="http://www.w3.org/2000/svg" xmlns:xlink="http://www.w3.org/1999/xlink" viewBox="0 0 141.69 146.81">
  <defs>
    <style>
      .cls-1 {
        fill: #ed1c24;
        stroke: #f7941d;
        stroke-width: .75px;
      }

      .cls-2 {
        fill: #231f20;
      }

      .cls-2, .cls-3, .cls-4, .cls-5, .cls-6, .cls-7, .cls-8, .cls-9 {
        stroke-width: 0px;
      }

      .cls-3 {
        fill: #f173ac;
      }

      .cls-10, .cls-11, .cls-12, .cls-13 {
        stroke-linecap: round;
        stroke-linejoin: round;
      }

      .cls-10, .cls-11, .cls-14, .cls-13 {
        stroke: #231f20;
        stroke-width: .99px;
      }

      .cls-10, .cls-8, .cls-14 {
        fill: #fff;
      }

      .cls-11 {
        fill: #cbdb2a;
      }

      .cls-4 {
        fill: #8a73b4;
      }

      .cls-5 {
        fill: #00aeef;
      }

      .cls-12 {
        stroke: #fff;
        stroke-width: 2.13px;
      }

      .cls-12, .cls-13 {
        fill: none;
      }

      .cls-6 {
        fill: #8dc63f;
      }

      .cls-7 {
        fill: url(#radial-gradient);
      }

      .cls-9 {
        fill: #ffcb05;
      }
    </style>
    <radialGradient id="radial-gradient" cx="70.48" cy="77.54" fx="70.48" fy="77.54" r="79.06" gradientUnits="userSpaceOnUse">
      <stop offset=".43" stop-color="#fbb040" stop-opacity="0"/>
      <stop offset=".48" stop-color="rgba(250, 173, 60, .07)" stop-opacity=".07"/>
      <stop offset=".57" stop-color="rgba(249, 166, 51, .23)" stop-opacity=".23"/>
      <stop offset=".7" stop-color="rgba(248, 155, 37, .49)" stop-opacity=".49"/>
      <stop offset=".77" stop-color="#f7941d" stop-opacity=".65"/>
      <stop offset=".83" stop-color="rgba(244, 124, 33, .77)" stop-opacity=".77"/>
      <stop offset=".89" stop-color="rgba(242, 105, 37, .87)" stop-opacity=".87"/>
      <stop offset=".95" stop-color="rgba(241, 93, 40, .93)" stop-opacity=".93"/>
      <stop offset="1" stop-color="#f15a29" stop-opacity=".95"/>
    </radialGradient>
  </defs>
  <g id="Layer_1-2" data-name="Layer 1">
    <g>
      <path class="cls-7" d="M79.12,146.81l-7.22-61.73c.69-.08,1.37-.24,2.01-.49l21.83,58.19c-5.35,2.01-10.94,3.36-16.62,4.03ZM62.12,146.76c-5.68-.7-11.27-2.09-16.61-4.14l22.23-58.04c.63.24,1.3.41,1.99.49l-7.61,61.69ZM110.91,134.87l-35.18-51.24c.59-.4,1.13-.88,1.6-1.41l46.36,41.4c-3.79,4.25-8.09,8.03-12.78,11.25ZM30.42,134.63c-4.67-3.25-8.94-7.06-12.71-11.32l46.6-41.13c.47.54,1.01,1.02,1.6,1.43l-35.49,51.02ZM133.44,109.63l-54.9-29.14c.32-.6.57-1.25.73-1.91l60.3,15.07c-1.39,5.55-3.45,10.92-6.13,15.98ZM8.04,109.25c-2.65-5.07-4.68-10.46-6.04-16.02l60.39-14.69c.16.66.4,1.31.72,1.92l-55.08,28.8ZM141.69,76.61h-62.15v-.16c0-.72-.08-1.43-.25-2.11l60.36-14.81c1.35,5.52,2.04,11.21,2.04,16.92v.16ZM62.15,76.43l-62.15-.13c.01-5.71.71-11.4,2.07-16.91l60.33,14.94c-.17.67-.25,1.38-.25,2.11ZM78.56,72.43c-.33-.62-.73-1.2-1.2-1.73l46.52-41.22c3.78,4.27,7.05,8.99,9.7,14.03l-55.02,28.92ZM63.14,72.42L8.17,43.39c2.66-5.04,5.93-9.75,9.72-14.01l46.45,41.3c-.47.53-.88,1.11-1.2,1.73ZM75.76,69.28c-.57-.4-1.19-.72-1.83-.97l22.1-58.09c5.33,2.03,10.42,4.71,15.12,7.96l-35.38,51.1ZM65.94,69.27L30.66,18.1c4.71-3.25,9.8-5.91,15.14-7.93l21.97,58.14c-.64.24-1.26.57-1.84.96ZM71.95,67.83c-.68-.08-1.43-.09-2.18,0l-7.35-61.72c2.78-.33,5.61-.5,8.42-.5,2.88,0,5.75.18,8.57.52l-7.46,61.71Z"/>
      <g>
        <path class="cls-11" d="M90.62,39.27c-2.34-2.59-7.27-2.43-10.31-1.06-2.78,1.24-4.76,2.94-4.73,5.75.01,1.66.14,3.41-.03,5.05-1.36-.08-12.04,3.38-13.25,3.04-.93-.26-3.27-5.93-4.81-7.59-2.32-2.49-5.04-3.35-8.46-3.76-15.6-1.88-9.9,14.82-9.36,16.12,2.07,5.04-1.87,10.59-4.15,14.94-3.63,6.92-4.59,15.41.18,21.8,6.57,8.8,23.3,12.93,36.09,12.18,4.17-.24,11.43-1.18,15.37-2.32,5.01-1.46,10.54-3.97,14.1-7.5,9.25-9.17,10.56-23.27,1.54-31.73-2.66-2.5-9.53-22.02-12.17-24.93"/>
        <path class="cls-10" d="M95.35,61.15s-8.33,9.3-20.81,10.59c-15.36,1.58-27.84-3.11-27.84-3.11,0,0,9.3,32.82,29.3,29.91,19.98-2.91,19.35-37.38,19.35-37.38"/>
        <path class="cls-2" d="M42.71,44.32c2.12-3.25,6.32-5.22,9.93-3.15,4.18,2.4,7.95-4.06,3.77-6.45-7.26-4.17-15.81-.83-20.15,5.83-2.63,4.04,3.83,7.79,6.45,3.77h0Z"/>
        <path class="cls-14" d="M42.6,47.08c0,4.3,3.87,7.78,8.65,7.78s8.65-3.48,8.65-7.78-3.87-7.78-8.65-7.78-8.65,3.48-8.65,7.78"/>
        <path class="cls-2" d="M95.36,32.31c-6.36-3.91-14.92-3.07-20.25,2.22-3.22,3.2,1.76,8.18,4.98,4.98,3.14-3.13,8.02-3.39,11.71-1.12,3.87,2.38,7.41-3.71,3.55-6.08h0Z"/>
        <path class="cls-14" d="M78.64,43.02c0,4.29,3.87,7.78,8.65,7.78s8.65-3.49,8.65-7.78-3.87-7.78-8.65-7.78-8.65,3.49-8.65,7.78"/>
        <path class="cls-13" d="M92.39,40.56s-4.29.18-9.66,3.4c0,0,5.72.36,9.12,2.15"/>
        <path class="cls-13" d="M46.59,44.85s4.47-1.43,9.48,1.43c0,0-3.22.36-6.98,3.58"/>
        <path class="cls-11" d="M66.91,105.42c-2.37-2.84-3.48-4.26-6.13-6.84-.92-.9-3.09-2.49-4.28-3-2.25-.97-4.72-.39-5.83,1.79-1.57,3.09.91,4.2,3.22,4.29,1.37.06,3.29,2.63,4.15,3.58,1.35,1.48,4.04,4.34,6.27,7.59.15,1.36.25,3.12.05,4.79-.28,2.3-.94,4.31-1.61,4.7-.67.38-1.48.41-2.24.31-.64-.08-1.35-.23-1.89.12-.27.17-.86,4.03.35,4.68,6.53,3.46,9.36.26,10.13-1.95.77-2.21.29-1.97,3.95-1.48,1.47.2.96,2.62.85,3.38-.1.76-1.14,2.62-1.68,3.16-.46.46-1.01.93-1.06,1.57-.03.32.08.64.24.92.69,1.18,4.07,2.56,5.25,1.86,4.91-2.95,5.8-10.76,5.95-14.95.1-2.83-.08-6.14-.56-8.81-.41.1,1.61-1.27,4.37-2.77,1.12-.61,3.98-1.92,5.26-1.44,2.16.81,4.57,1.44,4.33-2.01-.17-2.44-2.6-4.9-5.05-4.88-1.29,0-3.91.63-5.11,1.1-3.45,1.34-6.15,2.14-9.45,3.83l-9.47.46"/>
        <g>
          <path class="cls-1" d="M67.52,112.18c0-2.53,2.05-4.57,4.57-4.57s4.57,2.05,4.57,4.57-2.05,4.57-4.57,4.57-4.57-2.05-4.57-4.57Z"/>
          <path class="cls-8" d="M74.37,109.87c0,.29-.06.51-.18.66-.12.15-.28.22-.48.22h-1.96c-.09,0-.14.03-.14.1v.76h1.83c.18,0,.33.08.45.25.12.16.17.37.17.63,0,.28-.06.5-.17.65-.12.15-.27.22-.46.22h-1.81v1.08c0,.31-.06.56-.18.74-.13.2-.3.3-.52.3s-.4-.1-.51-.29c-.11-.19-.17-.44-.17-.76v-4.31c0-.75.28-1.12.85-1.12h2.64c.19,0,.34.08.46.23.12.15.17.36.17.63Z"/>
        </g>
      </g>
    </g>
    <g>
      <g>
        <path class="cls-3" d="M24.75,6.26c2.61-.77,5.24-1.46,7.88-2.08,3.17,2.87,6.17,5.85,9.02,8.91-.83-3.46-1.67-6.92-2.51-10.38,2.45-.61,4.91-1.16,7.38-1.65,1.04,7.04,2.08,14.09,3.14,21.13-2.05.3-4.09.65-6.12,1.05-2.84-3.24-5.86-6.39-9.05-9.43.91,3.62,1.82,7.24,2.73,10.85-2.09.64-4.16,1.34-6.22,2.09-2.1-6.83-4.18-13.66-6.24-20.49Z"/>
        <path class="cls-4" d="M52.28,7.12c2.28-.23,4.57-.41,6.86-.53.31,4.81.63,9.62.95,14.43-2.23.18-4.45.41-6.67.71-.41-4.87-.78-9.74-1.14-14.61ZM51.86,1.74c2.33-.28,4.67-.49,7.01-.65.07,1.29.14,2.58.21,3.86-2.27.16-4.53.37-6.79.64-.15-1.28-.29-2.56-.44-3.85Z"/>
        <path class="cls-4" d="M77.69,11.03c-.29-.26-.71-.54-1.24-.84-.54-.3-1.22-.55-2.06-.74-.86-.19-1.6-.23-2.22-.11-.62.12-1.15.33-1.57.64-.42.31-.73.68-.93,1.1-.2.43-.31.86-.33,1.3-.04.94.22,1.7.78,2.28.56.58,1.51.94,2.86,1.1.67.08,1.31.07,1.92-.02.61-.09,1.15-.21,1.62-.34.54-.17,1.04-.37,1.51-.6.76,1.57,1.49,3.15,2.19,4.74-.44.3-1.04.55-1.79.76-.65.17-1.5.32-2.56.46-1.06.14-2.37.15-3.95.08-1.56-.05-2.89-.24-3.99-.59-1.1-.35-2.02-.83-2.74-1.47-.72-.64-1.28-1.43-1.66-2.38-.38-.95-.62-2.05-.7-3.29-.11-1.24.05-2.39.48-3.45.43-1.06,1.07-1.99,1.93-2.77.86-.79,1.91-1.41,3.15-1.86,1.24-.45,2.62-.67,4.11-.66,1.52.01,2.82.18,3.89.47,1.07.29,1.95.62,2.64.97.79.42,1.45.87,1.98,1.36-.87,1.59-1.72,3.19-2.54,4.8-.18-.31-.44-.63-.79-.95Z"/>
        <path class="cls-4" d="M93.95,18.63c.64.02,1.22-.03,1.74-.17.52-.14.96-.3,1.33-.48.44-.21.83-.46,1.16-.76.85,1.11,1.68,2.24,2.48,3.37-.55.63-1.27,1.13-2.15,1.51-.76.33-1.75.58-2.96.76-1.21.18-2.7.12-4.47-.16-1.55-.23-2.83-.62-3.85-1.2-1.02-.57-1.84-1.24-2.47-2.02-.62-.78-1.07-1.64-1.34-2.59-.27-.94-.4-1.88-.39-2.8-.01-.93.16-1.84.52-2.75.36-.91.91-1.72,1.66-2.43.75-.71,1.69-1.26,2.84-1.65,1.14-.39,2.49-.54,4.03-.43,1.53.13,2.86.4,3.96.8,1.1.4,2.03.87,2.78,1.4.75.53,1.33,1.1,1.76,1.69.42.59.71,1.15.89,1.69.17.54.29,1.03.36,1.48.07.45.11.83.12,1.14,0,.37-.02.7-.04.98-4.15-.46-8.29-.72-12.39-.78.09.99.5,1.78,1.24,2.39.73.61,1.8.94,3.2,1.01ZM93.2,10.56c-.82-.1-1.48-.03-1.96.22-.48.25-.85.52-1.09.83-.31.38-.5.81-.6,1.3,2.24.11,4.49.28,6.74.5-.06-.46-.21-.89-.45-1.28-.21-.33-.52-.65-.94-.96-.42-.31-.99-.52-1.7-.6Z"/>
        <path class="cls-4" d="M104.76,18.73c1.19-4.91,2.35-9.83,3.5-14.75,1.89.54,3.77,1.12,5.64,1.74-1.68,4.72-3.34,9.45-4.98,14.19-1.38-.42-2.77-.81-4.16-1.18ZM108.29,22.2c.19.31.31.65.35,1.01.04.36.02.71-.06,1.05-.08.34-.22.66-.43.97-.21.3-.45.55-.73.76-.29.16-.61.28-.97.37-.36.09-.77.07-1.22-.05-.48-.12-.89-.31-1.24-.56-.35-.25-.63-.63-.83-1.14-.18-.44-.22-.88-.12-1.31.1-.43.26-.82.49-1.17.19-.3.47-.59.82-.88.36-.28.9-.4,1.65-.35,1,.02,1.77.46,2.31,1.3Z"/>
      </g>
      <g>
        <g>
          <path class="cls-12" d="M24.75,6.26c2.61-.77,5.24-1.46,7.88-2.08,3.17,2.87,6.17,5.85,9.02,8.91-.83-3.46-1.67-6.92-2.51-10.38,2.45-.61,4.91-1.16,7.38-1.65,1.04,7.04,2.08,14.09,3.14,21.13-2.05.3-4.09.65-6.12,1.05-2.84-3.24-5.86-6.39-9.05-9.43.91,3.62,1.82,7.24,2.73,10.85-2.09.64-4.16,1.34-6.22,2.09-2.1-6.83-4.18-13.66-6.24-20.49Z"/>
          <path class="cls-12" d="M24.75,6.26c2.61-.77,5.24-1.46,7.88-2.08,3.17,2.87,6.17,5.85,9.02,8.91-.83-3.46-1.67-6.92-2.51-10.38,2.45-.61,4.91-1.16,7.38-1.65,1.04,7.04,2.08,14.09,3.14,21.13-2.05.3-4.09.65-6.12,1.05-2.84-3.24-5.86-6.39-9.05-9.43.91,3.62,1.82,7.24,2.73,10.85-2.09.64-4.16,1.34-6.22,2.09-2.1-6.83-4.18-13.66-6.24-20.49Z"/>
        </g>
        <path class="cls-12" d="M52.28,7.12c2.28-.23,4.57-.41,6.86-.53.31,4.81.63,9.62.95,14.43-2.23.18-4.45.41-6.67.71-.41-4.87-.78-9.74-1.14-14.61ZM51.86,1.74c2.33-.28,4.67-.49,7.01-.65.07,1.29.14,2.58.21,3.86-2.27.16-4.53.37-6.79.64-.15-1.28-.29-2.56-.44-3.85Z"/>
        <path class="cls-12" d="M77.69,11.03c-.29-.26-.71-.54-1.24-.84-.54-.3-1.22-.55-2.06-.74-.86-.19-1.6-.23-2.22-.11-.62.12-1.15.33-1.57.64-.42.31-.73.68-.93,1.1-.2.43-.31.86-.33,1.3-.04.94.22,1.7.78,2.28.56.58,1.51.94,2.86,1.1.67.08,1.31.07,1.92-.02.61-.09,1.15-.21,1.62-.34.54-.17,1.04-.37,1.51-.6.76,1.57,1.49,3.15,2.19,4.74-.44.3-1.04.55-1.79.76-.65.17-1.5.32-2.56.46-1.06.14-2.37.15-3.95.08-1.56-.05-2.89-.24-3.99-.59-1.1-.35-2.02-.83-2.74-1.47-.72-.64-1.28-1.43-1.66-2.38-.38-.95-.62-2.05-.7-3.29-.11-1.24.05-2.39.48-3.45.43-1.06,1.07-1.99,1.93-2.77.86-.79,1.91-1.41,3.15-1.86,1.24-.45,2.62-.67,4.11-.66,1.52.01,2.82.18,3.89.47,1.07.29,1.95.62,2.64.97.79.42,1.45.87,1.98,1.36-.87,1.59-1.72,3.19-2.54,4.8-.18-.31-.44-.63-.79-.95Z"/>
        <path class="cls-12" d="M93.95,18.63c.64.02,1.22-.03,1.74-.17.52-.14.96-.3,1.33-.48.44-.21.83-.46,1.16-.76.85,1.11,1.68,2.24,2.48,3.37-.55.63-1.27,1.13-2.15,1.51-.76.33-1.75.58-2.96.76-1.21.18-2.7.12-4.47-.16-1.55-.23-2.83-.62-3.85-1.2-1.02-.57-1.84-1.24-2.47-2.02-.62-.78-1.07-1.64-1.34-2.59-.27-.94-.4-1.88-.39-2.8-.01-.93.16-1.84.52-2.75.36-.91.91-1.72,1.66-2.43.75-.71,1.69-1.26,2.84-1.65,1.14-.39,2.49-.54,4.03-.43,1.53.13,2.86.4,3.96.8,1.1.4,2.03.87,2.78,1.4.75.53,1.33,1.1,1.76,1.69.42.59.71,1.15.89,1.69.17.54.29,1.03.36,1.48.07.45.11.83.12,1.14,0,.37-.02.7-.04.98-4.15-.46-8.29-.72-12.39-.78.09.99.5,1.78,1.24,2.39.73.61,1.8.94,3.2,1.01ZM93.2,10.56c-.82-.1-1.48-.03-1.96.22-.48.25-.85.52-1.09.83-.31.38-.5.81-.6,1.3,2.24.11,4.49.28,6.74.5-.06-.46-.21-.89-.45-1.28-.21-.33-.52-.65-.94-.96-.42-.31-.99-.52-1.7-.6Z"/>
        <path class="cls-12" d="M104.76,18.73c1.19-4.91,2.35-9.83,3.5-14.75,1.89.54,3.77,1.12,5.64,1.74-1.68,4.72-3.34,9.45-4.98,14.19-1.38-.42-2.77-.81-4.16-1.18ZM108.29,22.2c.19.31.31.65.35,1.01.04.36.02.71-.06,1.05-.08.34-.22.66-.43.97-.21.3-.45.55-.73.76-.29.16-.61.28-.97.37-.36.09-.77.07-1.22-.05-.48-.12-.89-.31-1.24-.56-.35-.25-.63-.63-.83-1.14-.18-.44-.22-.88-.12-1.31.1-.43.26-.82.49-1.17.19-.3.47-.59.82-.88.36-.28.9-.4,1.65-.35,1,.02,1.77.46,2.31,1.3Z"/>
      </g>
      <g>
        <g>
          <path class="cls-5" d="M24.75,6.26c2.61-.77,5.24-1.46,7.88-2.08,3.17,2.87,6.17,5.85,9.02,8.91-.83-3.46-1.67-6.92-2.51-10.38,2.45-.61,4.91-1.16,7.38-1.65,1.04,7.04,2.08,14.09,3.14,21.13-2.05.3-4.09.65-6.12,1.05-2.84-3.24-5.86-6.39-9.05-9.43.91,3.62,1.82,7.24,2.73,10.85-2.09.64-4.16,1.34-6.22,2.09-2.1-6.83-4.18-13.66-6.24-20.49Z"/>
          <path class="cls-3" d="M24.75,6.26c2.61-.77,5.24-1.46,7.88-2.08,3.17,2.87,6.17,5.85,9.02,8.91-.83-3.46-1.67-6.92-2.51-10.38,2.45-.61,4.91-1.16,7.38-1.65,1.04,7.04,2.08,14.09,3.14,21.13-2.05.3-4.09.65-6.12,1.05-2.84-3.24-5.86-6.39-9.05-9.43.91,3.62,1.82,7.24,2.73,10.85-2.09.64-4.16,1.34-6.22,2.09-2.1-6.83-4.18-13.66-6.24-20.49Z"/>
        </g>
        <path class="cls-5" d="M52.28,7.12c2.28-.23,4.57-.41,6.86-.53.31,4.81.63,9.62.95,14.43-2.23.18-4.45.41-6.67.71-.41-4.87-.78-9.74-1.14-14.61ZM51.86,1.74c2.33-.28,4.67-.49,7.01-.65.07,1.29.14,2.58.21,3.86-2.27.16-4.53.37-6.79.64-.15-1.28-.29-2.56-.44-3.85Z"/>
        <path class="cls-9" d="M77.69,11.03c-.29-.26-.71-.54-1.24-.84-.54-.3-1.22-.55-2.06-.74-.86-.19-1.6-.23-2.22-.11-.62.12-1.15.33-1.57.64-.42.31-.73.68-.93,1.1-.2.43-.31.86-.33,1.3-.04.94.22,1.7.78,2.28.56.58,1.51.94,2.86,1.1.67.08,1.31.07,1.92-.02.61-.09,1.15-.21,1.62-.34.54-.17,1.04-.37,1.51-.6.76,1.57,1.49,3.15,2.19,4.74-.44.3-1.04.55-1.79.76-.65.17-1.5.32-2.56.46-1.06.14-2.37.15-3.95.08-1.56-.05-2.89-.24-3.99-.59-1.1-.35-2.02-.83-2.74-1.47-.72-.64-1.28-1.43-1.66-2.38-.38-.95-.62-2.05-.7-3.29-.11-1.24.05-2.39.48-3.45.43-1.06,1.07-1.99,1.93-2.77.86-.79,1.91-1.41,3.15-1.86,1.24-.45,2.62-.67,4.11-.66,1.52.01,2.82.18,3.89.47,1.07.29,1.95.62,2.64.97.79.42,1.45.87,1.98,1.36-.87,1.59-1.72,3.19-2.54,4.8-.18-.31-.44-.63-.79-.95Z"/>
        <path class="cls-6" d="M93.95,18.63c.64.02,1.22-.03,1.74-.17.52-.14.96-.3,1.33-.48.44-.21.83-.46,1.16-.76.85,1.11,1.68,2.24,2.48,3.37-.55.63-1.27,1.13-2.15,1.51-.76.33-1.75.58-2.96.76-1.21.18-2.7.12-4.47-.16-1.55-.23-2.83-.62-3.85-1.2-1.02-.57-1.84-1.24-2.47-2.02-.62-.78-1.07-1.64-1.34-2.59-.27-.94-.4-1.88-.39-2.8-.01-.93.16-1.84.52-2.75.36-.91.91-1.72,1.66-2.43.75-.71,1.69-1.26,2.84-1.65,1.14-.39,2.49-.54,4.03-.43,1.53.13,2.86.4,3.96.8,1.1.4,2.03.87,2.78,1.4.75.53,1.33,1.1,1.76,1.69.42.59.71,1.15.89,1.69.17.54.29,1.03.36,1.48.07.45.11.83.12,1.14,0,.37-.02.7-.04.98-4.15-.46-8.29-.72-12.39-.78.09.99.5,1.78,1.24,2.39.73.61,1.8.94,3.2,1.01ZM93.2,10.56c-.82-.1-1.48-.03-1.96.22-.48.25-.85.52-1.09.83-.31.38-.5.81-.6,1.3,2.24.11,4.49.28,6.74.5-.06-.46-.21-.89-.45-1.28-.21-.33-.52-.65-.94-.96-.42-.31-.99-.52-1.7-.6Z"/>
        <path class="cls-4" d="M104.76,18.73c1.19-4.91,2.35-9.83,3.5-14.75,1.89.54,3.77,1.12,5.64,1.74-1.68,4.72-3.34,9.45-4.98,14.19-1.38-.42-2.77-.81-4.16-1.18ZM108.29,22.2c.19.31.31.65.35,1.01.04.36.02.71-.06,1.05-.08.34-.22.66-.43.97-.21.3-.45.55-.73.76-.29.16-.61.28-.97.37-.36.09-.77.07-1.22-.05-.48-.12-.89-.31-1.24-.56-.35-.25-.63-.63-.83-1.14-.18-.44-.22-.88-.12-1.31.1-.43.26-.82.49-1.17.19-.3.47-.59.82-.88.36-.28.9-.4,1.65-.35,1,.02,1.77.46,2.31,1.3Z"/>
      </g>
    </g>
  </g>
</svg>