<?xml version="1.0" encoding="UTF-8"?>
<svg id="Layer_2" data-name="Layer 2" xmlns="http://www.w3.org/2000/svg" viewBox="0 0 114.71 122.55">
  <defs>
    <style>
      .cls-1 {
        stroke: #f7941d;
        stroke-width: .75px;
      }

      .cls-1, .cls-2 {
        fill: #ed1c24;
      }

      .cls-3, .cls-4 {
        fill: #231f20;
      }

      .cls-3, .cls-5 {
        stroke-width: 0px;
      }

      .cls-6, .cls-7, .cls-4, .cls-8 {
        stroke: #231f20;
        stroke-width: .99px;
      }

      .cls-6, .cls-7, .cls-9 {
        stroke-linecap: round;
        stroke-linejoin: round;
      }

      .cls-6, .cls-5, .cls-8 {
        fill: #fff;
      }

      .cls-7 {
        fill: #cbdb2a;
      }

      .cls-10 {
        letter-spacing: .04em;
      }

      .cls-2, .cls-9 {
        font-family: CloudyWithaChanceofLove, 'Cloudy With a Chance of Love';
        font-size: 40px;
      }

      .cls-9 {
        fill: none;
        stroke: #fff;
        stroke-width: 2.13px;
      }

      .cls-11 {
        letter-spacing: .12em;
      }
    </style>
  </defs>
  <g id="Layer_1-2" data-name="Layer 1">
    <g>
      <text class="cls-2" transform="translate(81.54 37.16) rotate(10) scale(1.2 1.1)"><tspan class="cls-10" x="0" y="0">!</tspan><tspan class="cls-11" x="11.09" y="-2.13">!</tspan></text>
      <text class="cls-9" transform="translate(81.54 37.16) rotate(10) scale(1.2 1.1)"><tspan class="cls-10" x="0" y="0">!</tspan><tspan class="cls-11" x="11.09" y="-2.13">!</tspan></text>
      <text class="cls-2" transform="translate(81.54 37.16) rotate(10) scale(1.2 1.1)"><tspan class="cls-10" x="0" y="0">!</tspan><tspan class="cls-11" x="11.09" y="-2.13">!</tspan></text>
    </g>
    <g>
      <path class="cls-7" d="M39.28,93.96s-5.18.39-7.65-.56c-2.47-.95-8.79,2.92-2.49,5.91,4.8,2.27,11.16,1.28,11.16,1.28,0,0-.2,9.76.78,11.8.98,2.04,7,7.55,11.84,9.45,3.13,1.22,5.7-3.03,3.92-4.29-1.24-.88-7.1-5.86-7.1-5.86l4.12-.93s9.56,1.08,12.87.52c2.15-.36,2.92-4.7.39-5.46-2.06-.62-7.81.59-9.37-.29,0,0-1.14-5.76-1.05-6.49,0,0,3.95-1.18,7.2-2.9,2.7-1.43,5.53-4,3.96-5.73-2.08-2.3-3.35-.84-10.34.96"/>
      <path class="cls-7" d="M59.3,25.79c-2.65-2.27-7.52-1.49-10.37.25-2.6,1.58-4.35,3.52-3.97,6.3.22,1.64.57,3.36.61,5.01-1.36.09-11.52,4.87-12.76,4.69-.95-.14-3.99-5.47-5.73-6.92-2.62-2.18-5.43-2.68-8.87-2.66-15.72.11-7.94,15.95-7.25,17.18,2.69,4.74-.51,10.74-2.23,15.35-2.73,7.32-2.61,15.87,2.93,21.6,7.62,7.9,24.75,9.88,37.34,7.52,4.1-.77,11.19-2.61,14.96-4.24,4.78-2.08,9.95-5.27,13.04-9.22,8.01-10.26,7.54-24.42-2.48-31.67-2.96-2.14-12.23-20.64-15.22-23.19"/>
      <path class="cls-1" d="M45.6,101.03c-.32-2.51,1.45-4.8,3.96-5.11s4.79,1.45,5.11,3.96-1.45,4.79-3.96,5.11c-2.51.32-4.8-1.45-5.11-3.96Z"/>
      <path class="cls-3" d="M7.32,34.26c.85-3.68,3.73-6.56,7.74-5.78,4.7.91,6.71-6.29,1.99-7.21C9.14,19.73,1.94,24.39.11,32.27c-1.09,4.68,6.12,6.68,7.21,1.99h0Z"/>
      <path class="cls-8" d="M12.64,39.6c.54,4.26,4.83,7.23,9.57,6.62s8.14-4.55,7.6-8.81c-.54-4.27-4.83-7.23-9.56-6.62-4.74.6-8.14,4.55-7.6,8.81"/>
      <path class="cls-4" d="M27.66,38.22c-.36-2.81-2.93-4.8-5.74-4.44s-4.79,2.93-4.44,5.74c.36,2.81,2.92,4.8,5.73,4.44s4.8-2.93,4.44-5.73Z"/>
      <path class="cls-5" d="M26.57,40.04c-.07-.53-.55-.91-1.09-.84s-.91.56-.85,1.09.56.91,1.09.84.91-.55.84-1.09"/>
      <path class="cls-3" d="M65.26,15.63c-5.13-5.23-12.49-5.6-18.59-1.8-3.84,2.39-.31,8.48,3.55,6.08,3.47-2.16,7.07-2.35,10.06.7,3.18,3.24,8.15-1.74,4.98-4.98h0Z"/>
      <path class="cls-8" d="M47.88,31.02c.54,4.26,4.83,7.23,9.56,6.62s8.14-4.55,7.6-8.81c-.54-4.26-4.83-7.23-9.57-6.63-4.74.6-8.14,4.55-7.6,8.81"/>
      <path class="cls-4" d="M62.51,29.8c-.36-2.81-2.93-4.8-5.73-4.44s-4.8,2.93-4.44,5.74,2.92,4.79,5.74,4.44,4.8-2.93,4.44-5.73"/>
      <path class="cls-5" d="M61.57,31.76c-.07-.54-.56-.91-1.09-.84s-.91.55-.84,1.09.56.91,1.09.85.91-.56.85-1.09"/>
      <path class="cls-5" d="M52.1,97.88c.04.28,0,.51-.09.68-.1.16-.25.26-.44.28l-1.94.25c-.09.01-.13.05-.12.11l.1.75,1.81-.23c.18-.02.34.04.47.19.14.14.22.34.25.6.04.28,0,.5-.09.67-.1.16-.24.25-.43.28l-1.8.23.14,1.07c.04.31.01.56-.08.76-.1.22-.26.34-.47.37s-.4-.05-.54-.22c-.14-.18-.22-.42-.26-.73l-.54-4.27c-.09-.74.14-1.15.7-1.22l2.62-.33c.19-.02.35.03.49.17.13.13.22.33.25.61Z"/>
      <path class="cls-6" d="M49.41,85.97c-5.14.6-10.16-3.54-11.24-8.53-1.33-6.16,1.11-14.57,5.21-16.81,11.13-6.05,23.61,23.29,6.03,25.33Z"/>
    </g>
  </g>
</svg>