<?xml version="1.0" encoding="UTF-8"?>
<svg id="Layer_2" data-name="Layer 2" xmlns="http://www.w3.org/2000/svg" viewBox="0 0 77.87 105.49">
  <defs>
    <style>
      .cls-1 {
        fill: #ed1c24;
        stroke: #f7941d;
        stroke-width: .75px;
      }

      .cls-2, .cls-3 {
        fill: #231f20;
      }

      .cls-2, .cls-4 {
        stroke-width: 0px;
      }

      .cls-5, .cls-6, .cls-7 {
        stroke-linecap: round;
        stroke-linejoin: round;
      }

      .cls-5, .cls-6, .cls-7, .cls-3, .cls-8 {
        stroke: #231f20;
        stroke-width: .99px;
      }

      .cls-5, .cls-4, .cls-8 {
        fill: #fff;
      }

      .cls-6 {
        fill: #cbdb2a;
      }

      .cls-7 {
        fill: #44c8f5;
      }
    </style>
  </defs>
  <g id="Layer_1-2" data-name="Layer 1">
    <g>
      <path class="cls-6" d="M35.29,73.23c-2.85.85-8.71,9.68-8.75,13.77,0,.77.67,1.77,1.07,1.87,1.28.31,3.74-3.56,6.11-5.61.09.47-.03,1-.11,1.46-.14.75-.6,3.77-.62,4.54,0,.38-1.52,14.3.32,14.76.93.23,2.84.32,3.8.31.9-.01,1.22.15,1.64-.77.35-.77.41-7.69.45-8.29.49-.12,3.48.24,3.48.32,0,.54-.35,4.17-.35,4.96,0,1.67-.46,3.7.35,4.1.42.21,4.12.51,5.08.25.64-.18.97-11.26.78-13.62-.14-1.74-.27-5.63-.27-7.38,0-.45,3.83,5.82,4.83,6.39.65.37,1.23-.33,1.6-.79.78-.95.7-2.87.43-4.13-.15-.72-1.83-4.44-2.14-4.99-1.71-3.06-5.14-6.05-6.35-6.61-2.36-1.09-8.51-1.38-11.36-.54Z"/>
      <path class="cls-1" d="M36.43,82.66c0-2.53,2.05-4.57,4.57-4.57s4.57,2.05,4.57,4.57-2.05,4.57-4.57,4.57-4.57-2.05-4.57-4.57Z"/>
      <path class="cls-4" d="M43.28,80.35c0,.29-.06.51-.18.66-.12.15-.28.22-.48.22h-1.96c-.09,0-.14.03-.14.1v.76h1.83c.18,0,.33.08.45.25.12.16.17.37.17.63,0,.28-.06.5-.17.65-.12.15-.27.22-.46.22h-1.81v1.08c0,.31-.06.56-.18.74-.13.2-.3.3-.52.3s-.4-.1-.51-.29c-.11-.19-.17-.44-.17-.76v-4.31c0-.75.28-1.12.85-1.12h2.64c.19,0,.34.08.46.23.12.15.17.36.17.63Z"/>
      <path class="cls-6" d="M59.09,9.47c-2.34-2.59-7.27-2.43-10.31-1.06-2.78,1.24-4.76,2.94-4.73,5.75.01,1.66.14,3.41-.03,5.05-1.36-.08-12.04,3.38-13.25,3.04-.93-.26-3.27-5.93-4.81-7.59-2.32-2.49-5.04-3.35-8.46-3.76-15.6-1.88-9.9,14.82-9.36,16.12,2.07,5.04-1.87,10.59-4.15,14.94-3.63,6.92-4.59,15.41.18,21.8,6.57,8.8,23.3,12.93,36.09,12.18,4.17-.24,11.43-1.18,15.37-2.32,5.01-1.46,10.54-3.97,14.1-7.5,9.25-9.17,10.56-23.27,1.54-31.73-2.66-2.5-9.53-22.02-12.17-24.93"/>
      <path class="cls-8" d="M11.06,17.27c0,4.3,3.87,7.78,8.65,7.78s8.65-3.48,8.65-7.78-3.87-7.78-8.65-7.78-8.65,3.48-8.65,7.78"/>
      <path class="cls-3" d="M26.5,17.26c0-2.83-2.3-5.13-5.13-5.13s-5.13,2.3-5.13,5.13,2.29,5.13,5.13,5.13,5.13-2.3,5.13-5.13Z"/>
      <path class="cls-4" d="M24.79,16.77c0-.54-.44-.97-.98-.97s-.98.44-.98.97.44.98.98.98.98-.44.98-.98"/>
      <path class="cls-8" d="M47.1,13.21c0,4.29,3.87,7.78,8.65,7.78s8.65-3.49,8.65-7.78-3.87-7.78-8.65-7.78-8.65,3.49-8.65,7.78"/>
      <path class="cls-3" d="M62.63,13.2c0-2.83-2.3-5.13-5.13-5.13s-5.13,2.3-5.13,5.13,2.3,5.13,5.13,5.13,5.13-2.3,5.13-5.13"/>
      <path class="cls-4" d="M61.56,12.74c0-.54-.44-.97-.98-.97s-.97.43-.97.97.44.98.97.98.98-.44.98-.98"/>
      <path class="cls-2" d="M18.86,3.64c-2.91,3.27-7.11,5.32-11.56,4.98-4.8-.36-4.77,7.12,0,7.47,6.25.47,12.76-2.57,16.85-7.17,3.19-3.58-2.08-8.89-5.28-5.28h0Z"/>
      <path class="cls-2" d="M48.75,6.72c4.07,2.86,9.54,4.03,14.42,3.87,4.52-.15,4.54-7.19,0-7.04-3.77.12-7.73-.7-10.87-2.91-3.71-2.61-7.24,3.49-3.55,6.08h0Z"/>
      <path class="cls-5" d="M39.97,59.5c5.8,3.25,11.06-6.47,5.28-9.77-5.86-3.34-10.18,7.02-5.28,9.77Z"/>
      <path class="cls-7" d="M4.45,27.49s4.64,9.82,4.41,13.73c-.28,4.73-2.17,6.16-4.59,6.27-2.42.11-4.72-2.85-3.37-7.51,1.02-3.53,3.48-11.21,3.55-12.49Z"/>
    </g>
  </g>
</svg>