<?xml version="1.0" encoding="UTF-8"?>
<svg id="Layer_2" data-name="Layer 2" xmlns="http://www.w3.org/2000/svg" viewBox="0 0 131.63 135.96">
  <defs>
    <style>
      .cls-1 {
        fill: #ed1c24;
        stroke: #f7941d;
        stroke-width: .75px;
      }

      .cls-2 {
        fill: #fff200;
      }

      .cls-2, .cls-3, .cls-4, .cls-5, .cls-6 {
        stroke-linecap: round;
        stroke-linejoin: round;
      }

      .cls-2, .cls-3, .cls-4, .cls-6 {
        stroke: #231f20;
        stroke-width: .99px;
      }

      .cls-7 {
        fill: #231f20;
      }

      .cls-7, .cls-8, .cls-9, .cls-10 {
        stroke-width: 0px;
      }

      .cls-3, .cls-10 {
        fill: #fff;
      }

      .cls-4 {
        fill: #cbdb2a;
      }

      .cls-8 {
        fill: #8a73b4;
      }

      .cls-9 {
        fill: #00aeef;
      }

      .cls-5 {
        stroke: #fff;
        stroke-width: 2.13px;
      }

      .cls-5, .cls-6 {
        fill: none;
      }
    </style>
  </defs>
  <g id="Layer_1-2" data-name="Layer 1">
    <g>
      <g>
        <path class="cls-8" d="M7.11,9.47c1.59,2.41,3.16,4.83,4.69,7.27-.02-2.6,0-5.21.03-7.82,1.46-.43,2.92-.84,4.39-1.23,1.4,2.42,2.76,4.85,4.1,7.29.03-2.94.09-5.88.17-8.83,2.02-.45,4.04-.86,6.07-1.25-1.08,5.31-2.01,10.62-2.8,15.93-1.5.3-2.99.62-4.48.96-1.19-2.04-2.4-4.08-3.63-6.1-.09,2.34-.17,4.67-.22,7-1.63.46-3.24.95-4.86,1.46-3.05-4.26-6.23-8.46-9.52-12.59,2.01-.73,4.03-1.42,6.05-2.08Z"/>
        <path class="cls-8" d="M36.47,15.24c.42-.13.78-.31,1.08-.52.3-.21.54-.42.73-.64.23-.24.41-.5.55-.78.81.53,1.61,1.06,2.4,1.59-.19.55-.53,1.05-1,1.53-.41.41-.99.81-1.74,1.22-.75.41-1.74.72-2.97.94-1.08.2-2.01.22-2.82.06-.8-.16-1.49-.43-2.07-.83-.58-.39-1.05-.88-1.41-1.46-.37-.58-.64-1.18-.82-1.8-.19-.62-.27-1.27-.21-1.95.05-.68.24-1.33.57-1.96.33-.62.81-1.19,1.45-1.68.63-.5,1.44-.88,2.42-1.14.98-.25,1.86-.36,2.63-.35.77.01,1.45.11,2.03.28.58.17,1.08.4,1.48.69.4.29.72.58.95.89.23.31.43.6.58.88.15.28.27.52.36.72.09.24.16.46.21.65-2.7.74-5.38,1.54-8.03,2.39.27.64.71,1.07,1.32,1.31.61.24,1.37.22,2.3-.06ZM34.16,10.08c-.54.11-.93.31-1.18.57-.25.27-.42.53-.51.79-.11.32-.15.65-.1,1,1.45-.41,2.91-.8,4.38-1.18-.15-.29-.34-.54-.58-.74-.2-.17-.47-.31-.81-.42-.33-.11-.73-.12-1.2-.02Z"/>
        <path class="cls-8" d="M42.23,2.22c1.59-.1,3.17-.17,4.75-.23.5,4.98.99,9.96,1.48,14.94-1.76.15-3.52.33-5.28.53-.34-5.08-.66-10.16-.96-15.24Z"/>
        <path class="cls-8" d="M49.97,1.49c1.59-.04,3.17-.06,4.76-.06.31,5,.62,9.99.93,14.99-1.77.09-3.53.2-5.29.33-.15-5.09-.28-10.17-.39-15.26Z"/>
        <path class="cls-8" d="M79.3,3.89c.49,1.01.78,2.18.86,3.49.08,1.31-.14,2.71-.63,4.21-.48,1.44-1.35,2.54-2.61,3.3-1.26.76-2.84,1.18-4.76,1.27-.53.04-1.13.06-1.8.07-.67,0-1.32.02-1.93.04-.71.02-1.43.03-2.17.03.02-5.07.04-10.14.07-15.2.84-.01,1.66-.02,2.45-.02.69,0,1.38,0,2.09,0,.7,0,1.29.01,1.77.03.64.02,1.3.08,1.98.17.68.09,1.32.24,1.92.44.6.21,1.14.49,1.63.85.48.36.86.81,1.15,1.34ZM75.1,10.31c.34-.67.5-1.37.49-2.09,0-.72-.19-1.43-.55-2.12-.16-.33-.35-.6-.55-.8-.2-.2-.42-.36-.65-.47-.23-.11-.47-.18-.73-.22-.26-.04-.52-.06-.79-.07-.14,0-.27,0-.41,0-.14,0-.26,0-.38,0-.14,0-.27,0-.41-.01-.02,2.56-.04,5.12-.06,7.69.93-.12,1.75-.3,2.45-.55.7-.25,1.23-.71,1.58-1.36Z"/>
        <path class="cls-8" d="M93.73,12.03c-.13,1.28-.44,2.29-.9,3.03-.47.74-1.02,1.29-1.67,1.65-.64.36-1.35.58-2.12.66-.77.08-1.52.09-2.26.04-.75-.05-1.47-.19-2.16-.42-.69-.23-1.3-.57-1.83-1.02-.53-.45-.95-1.02-1.26-1.72-.31-.69-.46-1.53-.42-2.53.03-.98.27-1.81.73-2.49.46-.68,1.02-1.23,1.69-1.65.66-.42,1.36-.73,2.1-.92.73-.19,1.39-.3,1.96-.32.29-.01.65,0,1.09.04.44.04.9.13,1.39.27.48.14.96.34,1.44.61.48.26.9.61,1.26,1.04.36.43.63.95.81,1.56.18.61.23,1.33.15,2.15ZM87.2,13.74c.75.09,1.37-.04,1.88-.41.51-.37.79-.89.82-1.56.02-.38-.04-.7-.16-.95-.13-.26-.3-.46-.52-.62-.22-.16-.47-.28-.75-.35-.28-.07-.56-.12-.84-.13-.81-.04-1.43.11-1.84.47-.41.35-.63.78-.67,1.29-.02.24-.01.48.03.72.04.24.14.47.3.68.15.21.37.4.65.56.28.16.65.27,1.09.32Z"/>
        <path class="cls-8" d="M94.26,17.98c.59-3.37,1.19-6.73,1.8-10.09,1.72.28,3.45.58,5.16.9-.07.5-.14,1-.22,1.5.18-.23.41-.42.72-.58.27-.14.62-.24,1.06-.3.44-.06,1.01-.03,1.72.09.69.13,1.24.35,1.63.64.39.29.68.62.88.97.19.35.32.7.38,1.04.06.34.11.62.15.85.04.22.08.51.1.85.03.34.05.72.08,1.12.03.41.05.83.07,1.27.02.44.03.87.05,1.29.02,1.01.03,2.06.04,3.17-1.72-.42-3.44-.82-5.17-1.19.09-.84.17-1.63.26-2.37.03-.31.06-.63.08-.96.02-.33.05-.64.08-.93.02-.29.04-.55.05-.78,0-.23,0-.42,0-.57-.02-.46-.11-.8-.27-1.03-.16-.23-.41-.37-.74-.44-.32-.07-.59-.03-.82.14-.23.17-.42.43-.55.79-.03.09-.07.24-.12.45-.05.2-.1.44-.16.72-.06.27-.11.57-.17.89-.06.32-.11.64-.17.97-.15.83-.29,1.67-.44,2.5-1.82-.33-3.64-.63-5.46-.9Z"/>
        <path class="cls-8" d="M117.07,19.74c.44.05.84.03,1.2-.05.36-.08.67-.17.93-.29.31-.13.58-.3.82-.49.54.81,1.06,1.61,1.58,2.42-.4.42-.91.75-1.53,1-.54.21-1.24.35-2.09.43-.85.08-1.89-.03-3.12-.32-1.07-.25-1.94-.6-2.62-1.07-.67-.47-1.2-.99-1.57-1.58-.37-.59-.61-1.22-.72-1.9-.1-.68-.12-1.34-.03-1.98.07-.64.26-1.27.58-1.87.32-.6.75-1.13,1.31-1.56.55-.44,1.22-.76,2-.96.78-.2,1.68-.23,2.68-.07,1,.17,1.86.41,2.56.73.7.32,1.29.68,1.76,1.07.47.39.83.8,1.09,1.22.25.42.43.82.52,1.2.09.38.16.72.19,1.04.03.32.05.58.04.8-.01.26-.03.49-.06.68-2.79-.4-5.58-.75-8.37-1.03,0,.69.23,1.27.69,1.73.47.47,1.18.75,2.14.86ZM117,14.08c-.54-.11-.98-.09-1.32.05-.34.15-.6.32-.79.52-.23.25-.39.54-.49.87,1.5.21,3,.43,4.51.67-.02-.32-.1-.63-.24-.91-.12-.24-.31-.47-.57-.71-.26-.24-.63-.4-1.1-.49Z"/>
        <path class="cls-8" d="M124.25,20.05c.91-3.42,1.82-6.84,2.72-10.26,1.2.38,2.4.77,3.6,1.17-1.17,3.31-2.34,6.61-3.5,9.93-.94-.29-1.87-.56-2.81-.84ZM126.62,22.49c.13.22.21.45.23.7.03.25.01.5-.04.74-.05.24-.15.47-.3.68-.14.21-.32.39-.51.53-.2.11-.43.2-.68.25-.25.06-.54.04-.86-.04-.33-.09-.62-.22-.87-.4-.25-.18-.43-.45-.56-.81-.12-.31-.14-.62-.06-.92.08-.3.2-.57.36-.81.14-.21.33-.41.58-.6.25-.19.63-.27,1.14-.23.68.02,1.21.33,1.57.92Z"/>
      </g>
      <g>
        <path class="cls-5" d="M7.11,9.47c1.59,2.41,3.16,4.83,4.69,7.27-.02-2.6,0-5.21.03-7.82,1.46-.43,2.92-.84,4.39-1.23,1.4,2.42,2.76,4.85,4.1,7.29.03-2.94.09-5.88.17-8.83,2.02-.45,4.04-.86,6.07-1.25-1.08,5.31-2.01,10.62-2.8,15.93-1.5.3-2.99.62-4.48.96-1.19-2.04-2.4-4.08-3.63-6.1-.09,2.34-.17,4.67-.22,7-1.63.46-3.24.95-4.86,1.46-3.05-4.26-6.23-8.46-9.52-12.59,2.01-.73,4.03-1.42,6.05-2.08Z"/>
        <path class="cls-5" d="M36.47,15.24c.42-.13.78-.31,1.08-.52.3-.21.54-.42.73-.64.23-.24.41-.5.55-.78.81.53,1.61,1.06,2.4,1.59-.19.55-.53,1.05-1,1.53-.41.41-.99.81-1.74,1.22-.75.41-1.74.72-2.97.94-1.08.2-2.01.22-2.82.06-.8-.16-1.49-.43-2.07-.83-.58-.39-1.05-.88-1.41-1.46-.37-.58-.64-1.18-.82-1.8-.19-.62-.27-1.27-.21-1.95.05-.68.24-1.33.57-1.96.33-.62.81-1.19,1.45-1.68.63-.5,1.44-.88,2.42-1.14.98-.25,1.86-.36,2.63-.35.77.01,1.45.11,2.03.28.58.17,1.08.4,1.48.69.4.29.72.58.95.89.23.31.43.6.58.88.15.28.27.52.36.72.09.24.16.46.21.65-2.7.74-5.38,1.54-8.03,2.39.27.64.71,1.07,1.32,1.31.61.24,1.37.22,2.3-.06ZM34.16,10.08c-.54.11-.93.31-1.18.57-.25.27-.42.53-.51.79-.11.32-.15.65-.1,1,1.45-.41,2.91-.8,4.38-1.18-.15-.29-.34-.54-.58-.74-.2-.17-.47-.31-.81-.42-.33-.11-.73-.12-1.2-.02Z"/>
        <path class="cls-5" d="M42.23,2.22c1.59-.1,3.17-.17,4.75-.23.5,4.98.99,9.96,1.48,14.94-1.76.15-3.52.33-5.28.53-.34-5.08-.66-10.16-.96-15.24Z"/>
        <path class="cls-5" d="M49.97,1.49c1.59-.04,3.17-.06,4.76-.06.31,5,.62,9.99.93,14.99-1.77.09-3.53.2-5.29.33-.15-5.09-.28-10.17-.39-15.26Z"/>
        <path class="cls-5" d="M79.3,3.89c.49,1.01.78,2.18.86,3.49.08,1.31-.14,2.71-.63,4.21-.48,1.44-1.35,2.54-2.61,3.3-1.26.76-2.84,1.18-4.76,1.27-.53.04-1.13.06-1.8.07-.67,0-1.32.02-1.93.04-.71.02-1.43.03-2.17.03.02-5.07.04-10.14.07-15.2.84-.01,1.66-.02,2.45-.02.69,0,1.38,0,2.09,0,.7,0,1.29.01,1.77.03.64.02,1.3.08,1.98.17.68.09,1.32.24,1.92.44.6.21,1.14.49,1.63.85.48.36.86.81,1.15,1.34ZM75.1,10.31c.34-.67.5-1.37.49-2.09,0-.72-.19-1.43-.55-2.12-.16-.33-.35-.6-.55-.8-.2-.2-.42-.36-.65-.47-.23-.11-.47-.18-.73-.22-.26-.04-.52-.06-.79-.07-.14,0-.27,0-.41,0-.14,0-.26,0-.38,0-.14,0-.27,0-.41-.01-.02,2.56-.04,5.12-.06,7.69.93-.12,1.75-.3,2.45-.55.7-.25,1.23-.71,1.58-1.36Z"/>
        <path class="cls-5" d="M93.73,12.03c-.13,1.28-.44,2.29-.9,3.03-.47.74-1.02,1.29-1.67,1.65-.64.36-1.35.58-2.12.66-.77.08-1.52.09-2.26.04-.75-.05-1.47-.19-2.16-.42-.69-.23-1.3-.57-1.83-1.02-.53-.45-.95-1.02-1.26-1.72-.31-.69-.46-1.53-.42-2.53.03-.98.27-1.81.73-2.49.46-.68,1.02-1.23,1.69-1.65.66-.42,1.36-.73,2.1-.92.73-.19,1.39-.3,1.96-.32.29-.01.65,0,1.09.04.44.04.9.13,1.39.27.48.14.96.34,1.44.61.48.26.9.61,1.26,1.04.36.43.63.95.81,1.56.18.61.23,1.33.15,2.15ZM87.2,13.74c.75.09,1.37-.04,1.88-.41.51-.37.79-.89.82-1.56.02-.38-.04-.7-.16-.95-.13-.26-.3-.46-.52-.62-.22-.16-.47-.28-.75-.35-.28-.07-.56-.12-.84-.13-.81-.04-1.43.11-1.84.47-.41.35-.63.78-.67,1.29-.02.24-.01.48.03.72.04.24.14.47.3.68.15.21.37.4.65.56.28.16.65.27,1.09.32Z"/>
        <path class="cls-5" d="M94.26,17.98c.59-3.37,1.19-6.73,1.8-10.09,1.72.28,3.45.58,5.16.9-.07.5-.14,1-.22,1.5.18-.23.41-.42.72-.58.27-.14.62-.24,1.06-.3.44-.06,1.01-.03,1.72.09.69.13,1.24.35,1.63.64.39.29.68.62.88.97.19.35.32.7.38,1.04.06.34.11.62.15.85.04.22.08.51.1.85.03.34.05.72.08,1.12.03.41.05.83.07,1.27.02.44.03.87.05,1.29.02,1.01.03,2.06.04,3.17-1.72-.42-3.44-.82-5.17-1.19.09-.84.17-1.63.26-2.37.03-.31.06-.63.08-.96.02-.33.05-.64.08-.93.02-.29.04-.55.05-.78,0-.23,0-.42,0-.57-.02-.46-.11-.8-.27-1.03-.16-.23-.41-.37-.74-.44-.32-.07-.59-.03-.82.14-.23.17-.42.43-.55.79-.03.09-.07.24-.12.45-.05.2-.1.44-.16.72-.06.27-.11.57-.17.89-.06.32-.11.64-.17.97-.15.83-.29,1.67-.44,2.5-1.82-.33-3.64-.63-5.46-.9Z"/>
        <path class="cls-5" d="M117.07,19.74c.44.05.84.03,1.2-.05.36-.08.67-.17.93-.29.31-.13.58-.3.82-.49.54.81,1.06,1.61,1.58,2.42-.4.42-.91.75-1.53,1-.54.21-1.24.35-2.09.43-.85.08-1.89-.03-3.12-.32-1.07-.25-1.94-.6-2.62-1.07-.67-.47-1.2-.99-1.57-1.58-.37-.59-.61-1.22-.72-1.9-.1-.68-.12-1.34-.03-1.98.07-.64.26-1.27.58-1.87.32-.6.75-1.13,1.31-1.56.55-.44,1.22-.76,2-.96.78-.2,1.68-.23,2.68-.07,1,.17,1.86.41,2.56.73.7.32,1.29.68,1.76,1.07.47.39.83.8,1.09,1.22.25.42.43.82.52,1.2.09.38.16.72.19,1.04.03.32.05.58.04.8-.01.26-.03.49-.06.68-2.79-.4-5.58-.75-8.37-1.03,0,.69.23,1.27.69,1.73.47.47,1.18.75,2.14.86ZM117,14.08c-.54-.11-.98-.09-1.32.05-.34.15-.6.32-.79.52-.23.25-.39.54-.49.87,1.5.21,3,.43,4.51.67-.02-.32-.1-.63-.24-.91-.12-.24-.31-.47-.57-.71-.26-.24-.63-.4-1.1-.49Z"/>
        <path class="cls-5" d="M124.25,20.05c.91-3.42,1.82-6.84,2.72-10.26,1.2.38,2.4.77,3.6,1.17-1.17,3.31-2.34,6.61-3.5,9.93-.94-.29-1.87-.56-2.81-.84ZM126.62,22.49c.13.22.21.45.23.7.03.25.01.5-.04.74-.05.24-.15.47-.3.68-.14.21-.32.39-.51.53-.2.11-.43.2-.68.25-.25.06-.54.04-.86-.04-.33-.09-.62-.22-.87-.4-.25-.18-.43-.45-.56-.81-.12-.31-.14-.62-.06-.92.08-.3.2-.57.36-.81.14-.21.33-.41.58-.6.25-.19.63-.27,1.14-.23.68.02,1.21.33,1.57.92Z"/>
      </g>
      <g>
        <path class="cls-9" d="M7.11,9.47c1.59,2.41,3.16,4.83,4.69,7.27-.02-2.6,0-5.21.03-7.82,1.46-.43,2.92-.84,4.39-1.23,1.4,2.42,2.76,4.85,4.1,7.29.03-2.94.09-5.88.17-8.83,2.02-.45,4.04-.86,6.07-1.25-1.08,5.31-2.01,10.62-2.8,15.93-1.5.3-2.99.62-4.48.96-1.19-2.04-2.4-4.08-3.63-6.1-.09,2.34-.17,4.67-.22,7-1.63.46-3.24.95-4.86,1.46-3.05-4.26-6.23-8.46-9.52-12.59,2.01-.73,4.03-1.42,6.05-2.08Z"/>
        <path class="cls-9" d="M36.47,15.24c.42-.13.78-.31,1.08-.52.3-.21.54-.42.73-.64.23-.24.41-.5.55-.78.81.53,1.61,1.06,2.4,1.59-.19.55-.53,1.05-1,1.53-.41.41-.99.81-1.74,1.22-.75.41-1.74.72-2.97.94-1.08.2-2.01.22-2.82.06-.8-.16-1.49-.43-2.07-.83-.58-.39-1.05-.88-1.41-1.46-.37-.58-.64-1.18-.82-1.8-.19-.62-.27-1.27-.21-1.95.05-.68.24-1.33.57-1.96.33-.62.81-1.19,1.45-1.68.63-.5,1.44-.88,2.42-1.14.98-.25,1.86-.36,2.63-.35.77.01,1.45.11,2.03.28.58.17,1.08.4,1.48.69.4.29.72.58.95.89.23.31.43.6.58.88.15.28.27.52.36.72.09.24.16.46.21.65-2.7.74-5.38,1.54-8.03,2.39.27.64.71,1.07,1.32,1.31.61.24,1.37.22,2.3-.06ZM34.16,10.08c-.54.11-.93.31-1.18.57-.25.27-.42.53-.51.79-.11.32-.15.65-.1,1,1.45-.41,2.91-.8,4.38-1.18-.15-.29-.34-.54-.58-.74-.2-.17-.47-.31-.81-.42-.33-.11-.73-.12-1.2-.02Z"/>
        <path class="cls-9" d="M42.23,2.22c1.59-.1,3.17-.17,4.75-.23.5,4.98.99,9.96,1.48,14.94-1.76.15-3.52.33-5.28.53-.34-5.08-.66-10.16-.96-15.24Z"/>
        <path class="cls-9" d="M49.97,1.49c1.59-.04,3.17-.06,4.76-.06.31,5,.62,9.99.93,14.99-1.77.09-3.53.2-5.29.33-.15-5.09-.28-10.17-.39-15.26Z"/>
        <path class="cls-9" d="M79.3,3.89c.49,1.01.78,2.18.86,3.49.08,1.31-.14,2.71-.63,4.21-.48,1.44-1.35,2.54-2.61,3.3-1.26.76-2.84,1.18-4.76,1.27-.53.04-1.13.06-1.8.07-.67,0-1.32.02-1.93.04-.71.02-1.43.03-2.17.03.02-5.07.04-10.14.07-15.2.84-.01,1.66-.02,2.45-.02.69,0,1.38,0,2.09,0,.7,0,1.29.01,1.77.03.64.02,1.3.08,1.98.17.68.09,1.32.24,1.92.44.6.21,1.14.49,1.63.85.48.36.86.81,1.15,1.34ZM75.1,10.31c.34-.67.5-1.37.49-2.09,0-.72-.19-1.43-.55-2.12-.16-.33-.35-.6-.55-.8-.2-.2-.42-.36-.65-.47-.23-.11-.47-.18-.73-.22-.26-.04-.52-.06-.79-.07-.14,0-.27,0-.41,0-.14,0-.26,0-.38,0-.14,0-.27,0-.41-.01-.02,2.56-.04,5.12-.06,7.69.93-.12,1.75-.3,2.45-.55.7-.25,1.23-.71,1.58-1.36Z"/>
        <path class="cls-9" d="M93.73,12.03c-.13,1.28-.44,2.29-.9,3.03-.47.74-1.02,1.29-1.67,1.65-.64.36-1.35.58-2.12.66-.77.08-1.52.09-2.26.04-.75-.05-1.47-.19-2.16-.42-.69-.23-1.3-.57-1.83-1.02-.53-.45-.95-1.02-1.26-1.72-.31-.69-.46-1.53-.42-2.53.03-.98.27-1.81.73-2.49.46-.68,1.02-1.23,1.69-1.65.66-.42,1.36-.73,2.1-.92.73-.19,1.39-.3,1.96-.32.29-.01.65,0,1.09.04.44.04.9.13,1.39.27.48.14.96.34,1.44.61.48.26.9.61,1.26,1.04.36.43.63.95.81,1.56.18.61.23,1.33.15,2.15ZM87.2,13.74c.75.09,1.37-.04,1.88-.41.51-.37.79-.89.82-1.56.02-.38-.04-.7-.16-.95-.13-.26-.3-.46-.52-.62-.22-.16-.47-.28-.75-.35-.28-.07-.56-.12-.84-.13-.81-.04-1.43.11-1.84.47-.41.35-.63.78-.67,1.29-.02.24-.01.48.03.72.04.24.14.47.3.68.15.21.37.4.65.56.28.16.65.27,1.09.32Z"/>
        <path class="cls-9" d="M94.26,17.98c.59-3.37,1.19-6.73,1.8-10.09,1.72.28,3.45.58,5.16.9-.07.5-.14,1-.22,1.5.18-.23.41-.42.72-.58.27-.14.62-.24,1.06-.3.44-.06,1.01-.03,1.72.09.69.13,1.24.35,1.63.64.39.29.68.62.88.97.19.35.32.7.38,1.04.06.34.11.62.15.85.04.22.08.51.1.85.03.34.05.72.08,1.12.03.41.05.83.07,1.27.02.44.03.87.05,1.29.02,1.01.03,2.06.04,3.17-1.72-.42-3.44-.82-5.17-1.19.09-.84.17-1.63.26-2.37.03-.31.06-.63.08-.96.02-.33.05-.64.08-.93.02-.29.04-.55.05-.78,0-.23,0-.42,0-.57-.02-.46-.11-.8-.27-1.03-.16-.23-.41-.37-.74-.44-.32-.07-.59-.03-.82.14-.23.17-.42.43-.55.79-.03.09-.07.24-.12.45-.05.2-.1.44-.16.72-.06.27-.11.57-.17.89-.06.32-.11.64-.17.97-.15.83-.29,1.67-.44,2.5-1.82-.33-3.64-.63-5.46-.9Z"/>
        <path class="cls-9" d="M117.07,19.74c.44.05.84.03,1.2-.05.36-.08.67-.17.93-.29.31-.13.58-.3.82-.49.54.81,1.06,1.61,1.58,2.42-.4.42-.91.75-1.53,1-.54.21-1.24.35-2.09.43-.85.08-1.89-.03-3.12-.32-1.07-.25-1.94-.6-2.62-1.07-.67-.47-1.2-.99-1.57-1.58-.37-.59-.61-1.22-.72-1.9-.1-.68-.12-1.34-.03-1.98.07-.64.26-1.27.58-1.87.32-.6.75-1.13,1.31-1.56.55-.44,1.22-.76,2-.96.78-.2,1.68-.23,2.68-.07,1,.17,1.86.41,2.56.73.7.32,1.29.68,1.76,1.07.47.39.83.8,1.09,1.22.25.42.43.82.52,1.2.09.38.16.72.19,1.04.03.32.05.58.04.8-.01.26-.03.49-.06.68-2.79-.4-5.58-.75-8.37-1.03,0,.69.23,1.27.69,1.73.47.47,1.18.75,2.14.86ZM117,14.08c-.54-.11-.98-.09-1.32.05-.34.15-.6.32-.79.52-.23.25-.39.54-.49.87,1.5.21,3,.43,4.51.67-.02-.32-.1-.63-.24-.91-.12-.24-.31-.47-.57-.71-.26-.24-.63-.4-1.1-.49Z"/>
        <path class="cls-9" d="M124.25,20.05c.91-3.42,1.82-6.84,2.72-10.26,1.2.38,2.4.77,3.6,1.17-1.17,3.31-2.34,6.61-3.5,9.93-.94-.29-1.87-.56-2.81-.84ZM126.62,22.49c.13.22.21.45.23.7.03.25.01.5-.04.74-.05.24-.15.47-.3.68-.14.21-.32.39-.51.53-.2.11-.43.2-.68.25-.25.06-.54.04-.86-.04-.33-.09-.62-.22-.87-.4-.25-.18-.43-.45-.56-.81-.12-.31-.14-.62-.06-.92.08-.3.2-.57.36-.81.14-.21.33-.41.58-.6.25-.19.63-.27,1.14-.23.68.02,1.21.33,1.57.92Z"/>
      </g>
    </g>
    <g>
      <path class="cls-4" d="M60.35,107.53c1.36-.54,2.96-1.98,3.92-3.08.98-1.12,1.23-2.54,1.69-3.87.6-1.72,2.61-3.91,4.35-4.5,1.58-.53,8.28-.75,6.35,2.69-.61,1.09-1.92,1.26-2.9,1.91-1.71,1.13-1.03,2.44-1.91,4.51-.58,1.38-1.67.92-2.5,2.29-.75,1.23-2,3.12-3.66,4.56-1.28,1.11-2.83,1.92-4.49,2.28-2.49.54-5.29-1.01-6.14-3.53-.71-2.1-.21-5.6,1.79-8.1"/>
      <path class="cls-4" d="M63.6,104.24c2.42-.95,8.58-.89,11.37.12,2.79,1.02,1.22,4.83,1.37,16.13,0,.38.7,14.36-1.17,14.72-.94.18-2.86.16-3.82.09-.89-.06-1.23.08-1.59-.87-.3-.79.03-7.7.03-8.3-.48-.15-3.48.03-3.49.12-.03.54.11,4.18.06,4.97-.1,1.66.24,3.72-.58,4.07-.43.19-4.15.27-5.08-.04-.63-.22-.32-11.3,0-13.64.24-1.73.35-9.07.45-10.81"/>
      <path class="cls-4" d="M86.6,40.18c-2.34-2.59-7.27-2.43-10.31-1.06-2.78,1.24-4.76,2.94-4.73,5.75.01,1.66.14,3.41-.03,5.05-1.36-.08-12.04,3.38-13.25,3.04-.93-.26-3.27-5.93-4.81-7.59-2.32-2.49-5.04-3.35-8.46-3.76-15.6-1.88-9.9,14.82-9.36,16.12,2.07,5.04-1.87,10.59-4.15,14.94-3.63,6.92-4.59,15.41.18,21.8,6.57,8.8,23.3,12.93,36.09,12.18,4.17-.24,11.43-1.18,15.37-2.32,5.01-1.46,10.54-3.97,14.1-7.5,9.25-9.17,10.56-23.27,1.54-31.73-2.66-2.5-9.53-22.02-12.17-24.93"/>
      <path class="cls-3" d="M86.8,67.49s-5.06,12.3-14.25,13.08c-11.32.96-21.58-8.55-21.58-8.55,0,0,6.85,19.87,21.58,18.11,14.72-1.76,14.25-22.64,14.25-22.64"/>
      <path class="cls-7" d="M38.69,45.22c2.12-3.25,6.32-5.22,9.93-3.15,4.18,2.4,7.95-4.06,3.77-6.45-7.26-4.17-15.81-.83-20.15,5.83-2.63,4.04,3.83,7.79,6.45,3.77h0Z"/>
      <path class="cls-7" d="M91.34,33.21c-6.36-3.91-14.92-3.07-20.25,2.22-3.22,3.2,1.76,8.18,4.98,4.98s8.02-3.39,11.71-1.12c3.87,2.38,7.41-3.71,3.55-6.08h0Z"/>
      <g>
        <path class="cls-1" d="M64.57,113.08c0-2.53,2.05-4.57,4.57-4.57s4.57,2.05,4.57,4.57-2.05,4.57-4.57,4.57-4.57-2.05-4.57-4.57Z"/>
        <path class="cls-10" d="M71.43,110.78c0,.29-.06.51-.18.66-.12.15-.28.22-.48.22h-1.96c-.09,0-.14.03-.14.1v.76h1.83c.18,0,.33.08.45.25.12.16.17.37.17.63,0,.28-.06.5-.17.65-.12.15-.27.22-.46.22h-1.81v1.08c0,.31-.06.56-.18.74-.13.2-.3.3-.52.3s-.4-.1-.51-.29c-.11-.19-.17-.44-.17-.76v-4.31c0-.75.28-1.12.85-1.12h2.64c.19,0,.34.08.46.23.12.15.17.36.17.63Z"/>
      </g>
      <path class="cls-3" d="M38.58,47.98c0,4.3,3.87,7.78,8.65,7.78s8.65-3.48,8.65-7.78-3.87-7.78-8.65-7.78-8.65,3.48-8.65,7.78"/>
      <path class="cls-3" d="M74.62,43.93c0,4.29,3.87,7.78,8.65,7.78s8.65-3.49,8.65-7.78-3.87-7.78-8.65-7.78-8.65,3.49-8.65,7.78"/>
      <path class="cls-6" d="M42.95,50.57s.32-5.35,3.73-5.99,5.51,3.56,5.51,3.56"/>
      <path class="cls-6" d="M88.54,45.41s-1.51-5.14-4.97-5.01c-3.46.13-4.57,4.71-4.57,4.71"/>
      <path class="cls-4" d="M78.57,107.71c2.03-.39,4.61-1.58,5.59-3.51.65-1.28.92-2.79.69-4.21-.17-1.06-.99-3.12-2.39-2.96-1.05.12-1.45,1.49-1.8,2.29-.41.94-.83,1.51-1.71,2.14-1.34.96-3.18,1.72-4.13,3.14-2.07,3.09-.26,6.06.98,7.91.78,1.17,3.5,4.54,5.88,3.3,2.93-1.53,1.87-7.83-.69-8.83"/>
      <path class="cls-4" d="M60.35,107.53c1.36-.54,2.96-1.98,3.92-3.08.98-1.12,1.23-2.54,1.69-3.87.6-1.72,2.61-3.91,4.35-4.5,1.58-.53,8.28-.75,6.35,2.69-.61,1.09-1.92,1.26-2.9,1.91-1.71,1.13-1.03,2.44-1.91,4.51-.58,1.38-1.67.92-2.5,2.29-.75,1.23-2,3.12-3.66,4.56-1.28,1.11-2.83,1.92-4.49,2.28-2.49.54-5.29-1.01-6.14-3.53"/>
      <g>
        <polygon class="cls-2" points="90.09 99.67 89.67 97.59 97.11 94.12 98.51 99.09 90.09 99.67"/>
        <polygon class="cls-2" points="90.09 105.36 90.79 103.01 99.09 103.97 97.01 108.34 90.09 105.36"/>
        <polygon class="cls-2" points="88.09 94.66 86.43 93 92.16 86.12 95.43 89.32 88.09 94.66"/>
      </g>
    </g>
  </g>
</svg>